<?xml version="1.0" standalone="no"?>
<!DOCTYPE svg PUBLIC "-//W3C//DTD SVG 20010904//EN"
 "http://www.w3.org/TR/2001/REC-SVG-20010904/DTD/svg10.dtd">
<svg version="1.0" xmlns="http://www.w3.org/2000/svg"
 width="337.000000pt" height="335.000000pt" viewBox="0 0 337.000000 335.000000"
 preserveAspectRatio="xMidYMid meet">

<g transform="translate(0.000000,335.000000) scale(0.100000,-0.100000)"
fill="#000000" stroke="none">
<path d="M1502 3339 c-70 -8 -116 -16 -279 -54 -57 -13 -207 -72 -288 -112
-275 -138 -497 -335 -658 -583 -365 -565 -365 -1265 0 -1830 328 -506 934
-804 1526 -752 744 67 1337 580 1503 1302 155 672 -136 1386 -718 1764 -323
210 -709 304 -1086 265z m303 -130 c564 -49 1029 -368 1275 -874 57 -116 92
-219 122 -359 32 -149 32 -445 0 -603 -28 -138 -61 -240 -117 -360 -330 -704
-1145 -1055 -1880 -812 -465 154 -831 517 -985 977 -60 180 -73 267 -74 487 0
172 3 215 22 305 105 483 391 859 822 1079 202 104 393 152 675 170 11 0 74
-4 140 -10z"/>
<path d="M1445 3044 c-183 -32 -369 -106 -524 -208 -123 -80 -283 -232 -364
-345 -114 -157 -206 -369 -244 -559 -24 -121 -23 -384 1 -506 52 -264 172
-501 351 -694 71 -76 210 -194 261 -220 19 -10 21 -9 18 11 -2 12 -20 137 -39
278 -19 141 -45 301 -56 355 -31 147 -21 261 57 624 19 91 40 203 45 248 18
155 33 168 412 356 351 174 341 172 488 100 147 -72 509 -235 563 -254 64 -23
86 -43 86 -80 l0 -31 -27 21 c-16 11 -95 44 -178 74 -201 72 -324 121 -419
167 -44 22 -93 39 -108 39 -16 0 -90 -24 -166 -54 -75 -29 -181 -71 -234 -91
-54 -21 -98 -42 -98 -47 0 -13 10 -11 235 67 126 44 233 75 256 75 27 0 68
-14 127 -44 48 -24 176 -76 285 -115 234 -85 264 -98 272 -111 10 -16 -17 -89
-43 -115 -40 -40 -77 -41 -239 -1 -209 50 -265 58 -376 57 -197 -2 -357 -66
-357 -143 0 -70 74 -158 152 -179 87 -23 240 10 340 74 70 44 135 67 193 67
87 0 161 -50 153 -102 -2 -14 -47 -53 -133 -114 -71 -51 -186 -147 -255 -213
-69 -66 -161 -149 -205 -184 -44 -36 -96 -81 -115 -101 l-35 -37 1 -247 c1
-239 13 -373 45 -521 l11 -54 137 6 c284 12 508 84 736 235 305 204 526 544
591 912 22 126 22 354 0 475 -35 191 -108 370 -213 530 -79 119 -252 296 -364
373 -160 109 -370 194 -558 226 -117 20 -354 20 -466 0z m439 -130 c496 -86
896 -465 1007 -954 26 -115 35 -321 19 -446 -50 -403 -312 -771 -677 -954
-162 -81 -358 -130 -518 -130 l-83 0 -10 73 c-6 40 -17 177 -23 303 -14 279
-17 269 108 369 49 38 142 122 208 185 114 110 181 164 338 274 97 68 116 114
77 191 -11 21 -18 40 -16 43 2 2 19 6 38 9 18 3 42 10 53 15 38 19 85 72 96
107 7 20 22 43 34 53 55 43 58 138 6 192 -16 17 -52 39 -80 49 -61 21 -484
213 -595 269 -73 37 -89 42 -156 42 l-75 1 -306 -153 c-408 -203 -429 -221
-454 -416 -7 -55 -25 -153 -39 -216 -71 -313 -92 -535 -62 -670 9 -41 27 -151
40 -243 l23 -168 -59 58 c-166 162 -278 369 -335 616 -33 142 -37 361 -9 497
55 267 158 461 346 651 190 193 406 307 665 353 110 19 329 20 439 0z m63
-960 l106 -17 -54 -21 c-30 -12 -85 -39 -124 -60 -81 -47 -147 -66 -227 -66
-52 0 -62 3 -97 35 -60 55 -59 69 9 99 98 44 229 54 387 30z"/>
</g>
</svg>
