<?xml version="1.0" standalone="no"?>
<!DOCTYPE svg PUBLIC "-//W3C//DTD SVG 20010904//EN"
 "http://www.w3.org/TR/2001/REC-SVG-20010904/DTD/svg10.dtd">
<svg version="1.0" xmlns="http://www.w3.org/2000/svg"
 width="728.000000pt" height="508.000000pt" viewBox="0 0 728.000000 508.000000"
 preserveAspectRatio="xMidYMid meet">
<metadata>
Created by potrace 1.16, written by Peter Selinger 2001-2019
</metadata>
<g transform="translate(0.000000,508.000000) scale(0.100000,-0.100000)"
fill="#000000" stroke="none">
<path d="M3345 4821 c-172 -25 -202 -31 -380 -81 -53 -15 -122 -39 -162 -56
-17 -8 -34 -14 -37 -14 -14 0 -151 -65 -259 -124 -75 -40 -226 -144 -324 -223
-309 -249 -549 -579 -693 -953 -18 -47 -36 -94 -41 -105 -4 -11 -12 -40 -19
-65 -6 -25 -16 -61 -22 -80 -29 -99 -55 -268 -68 -440 -7 -104 -6 -175 5 -310
25 -302 85 -532 203 -785 118 -253 260 -454 461 -656 219 -218 426 -359 726
-494 88 -40 315 -113 364 -118 l24 -2 -2 170 c-1 94 -3 193 -6 220 -2 28 -7
78 -10 112 -9 105 -22 153 -46 180 -13 14 -99 101 -190 192 -128 129 -200 212
-319 369 -180 239 -273 337 -431 455 -115 85 -179 146 -179 170 1 36 52 86
114 112 52 22 164 19 228 -5 111 -43 191 -92 360 -221 146 -112 264 -160 338
-138 22 7 44 17 48 23 12 15 30 82 37 136 19 136 13 761 -10 1105 -22 328 -27
503 -16 544 17 60 73 117 141 141 97 35 120 23 131 -71 4 -35 15 -118 24 -184
19 -140 40 -307 54 -420 6 -44 13 -91 16 -105 3 -14 9 -63 15 -110 5 -47 17
-137 25 -200 l15 -115 -29 -25 c-28 -25 -71 -82 -71 -94 0 -4 20 5 44 19 57
33 140 57 185 53 54 -5 52 13 -5 41 -49 23 -52 27 -58 70 -7 47 -27 203 -45
346 -6 44 -15 112 -21 150 -5 39 -16 124 -25 190 -9 66 -20 149 -25 185 -6 36
-14 103 -20 150 -5 47 -14 112 -19 145 -9 65 -6 79 31 111 70 63 206 55 242
-14 9 -17 20 -66 25 -109 6 -43 17 -125 25 -183 35 -245 47 -329 81 -585 8
-60 22 -157 30 -215 9 -58 18 -132 22 -165 6 -67 32 -105 69 -105 18 0 29 14
58 73 19 40 45 99 57 132 12 33 25 65 29 70 4 6 10 19 13 30 3 11 15 45 27 75
11 30 28 75 37 100 8 25 21 59 28 75 14 34 57 153 109 300 19 55 50 145 70
199 20 55 36 101 36 103 0 2 15 12 33 23 62 38 143 16 205 -55 29 -33 32 -41
32 -106 0 -87 -22 -182 -66 -284 -7 -16 -34 -84 -59 -150 -25 -66 -50 -129
-55 -140 -4 -11 -22 -56 -40 -100 -17 -44 -38 -94 -46 -112 -8 -17 -14 -37
-14 -45 0 -8 -3 -18 -7 -22 -4 -4 -25 -55 -48 -114 l-41 -107 -64 -5 -65 -5
45 -14 c60 -17 117 -51 159 -95 19 -20 38 -36 42 -36 10 0 -19 70 -38 92 -9
10 -12 25 -8 40 6 22 57 151 75 193 5 11 29 74 55 140 25 66 50 129 55 140 5
11 30 74 55 140 25 66 50 129 55 140 5 11 14 37 21 57 15 43 41 54 98 38 29
-8 45 -20 61 -47 24 -42 24 -92 -3 -198 -17 -69 -46 -192 -58 -250 -10 -51
-32 -150 -54 -245 -9 -41 -21 -95 -26 -120 -5 -25 -13 -63 -18 -85 -38 -154
-60 -346 -66 -573 -10 -373 -42 -475 -233 -742 -106 -148 -108 -158 -97 -544
l7 -266 27 6 c14 3 35 9 46 14 11 4 54 20 95 35 163 60 255 105 420 207 402
247 729 629 904 1058 15 36 31 74 36 85 5 11 17 45 26 75 8 30 20 64 24 75 5
11 14 43 20 70 6 28 17 77 25 110 35 149 46 289 42 511 -4 237 -14 322 -54
484 -41 169 -77 274 -144 418 -22 46 -39 85 -39 88 0 14 -132 231 -188 308
-64 89 -79 106 -180 219 -129 142 -311 291 -492 402 -92 57 -329 175 -350 175
-6 0 -18 4 -28 9 -9 5 -44 18 -77 29 -256 83 -428 112 -705 117 -142 3 -215 0
-315 -14z"/>
<path d="M3350 1901 c0 -6 5 -11 11 -11 23 0 149 -92 205 -150 72 -74 107
-133 136 -225 19 -59 22 -94 22 -227 1 -170 6 -172 40 -18 32 148 16 296 -46
412 -38 72 -131 162 -200 193 -61 27 -168 44 -168 26z"/>
</g>
</svg>
