<?xml version="1.0" standalone="no"?>
<!DOCTYPE svg PUBLIC "-//W3C//DTD SVG 20010904//EN"
 "http://www.w3.org/TR/2001/REC-SVG-20010904/DTD/svg10.dtd">
<svg version="1.0" xmlns="http://www.w3.org/2000/svg"
 width="336.000000pt" height="335.000000pt" viewBox="0 0 336.000000 335.000000"
 preserveAspectRatio="xMidYMid meet">

<g transform="translate(0.000000,335.000000) scale(0.100000,-0.100000)"
fill="#000000" stroke="none">
<path d="M1515 3339 c-497 -52 -959 -333 -1228 -749 -345 -533 -365 -1183 -56
-1739 127 -227 316 -429 539 -573 565 -367 1265 -367 1830 0 362 234 617 603
716 1032 154 673 -137 1388 -716 1763 -327 211 -710 305 -1085 266z m413 -145
c477 -70 915 -391 1137 -834 210 -419 216 -928 16 -1346 -222 -462 -627 -773
-1131 -870 -127 -24 -397 -25 -525 -1 -546 100 -1003 477 -1190 982 -63 169
-85 287 -93 485 -8 188 2 282 48 459 78 304 268 597 517 798 352 283 765 393
1221 327z"/>
<path d="M1455 3045 c-211 -37 -443 -132 -574 -234 l-25 -19 59 -62 c96 -99
229 -178 485 -286 202 -84 460 -219 535 -280 173 -138 382 -341 437 -423 22
-32 23 -74 3 -91 -25 -20 -312 186 -483 347 -69 65 -74 68 -84 49 -10 -18 -3
-28 58 -85 107 -100 246 -207 402 -310 132 -87 142 -96 142 -125 0 -32 -33
-96 -49 -96 -11 0 -260 151 -326 197 -95 68 -303 233 -307 244 -2 6 -12 2 -21
-9 -18 -19 -16 -21 55 -79 150 -123 318 -241 466 -328 144 -85 152 -91 152
-120 0 -55 -69 -105 -145 -105 -42 0 -51 5 -108 58 -34 31 -100 84 -147 117
-47 32 -147 106 -222 163 -109 82 -141 101 -155 94 -14 -9 -12 -14 23 -46 21
-20 129 -101 239 -181 110 -79 220 -164 244 -189 43 -43 44 -46 31 -76 -7 -17
-28 -42 -46 -56 -30 -24 -36 -25 -88 -15 -93 17 -230 93 -346 190 -30 26 -75
62 -98 80 -51 40 -334 212 -339 207 -2 -2 24 -44 58 -92 94 -134 158 -243 165
-281 12 -62 -44 -140 -93 -131 -25 4 -466 454 -488 498 -10 19 -30 85 -45 145
-34 138 -46 165 -104 242 -46 60 -281 293 -297 293 -11 0 -67 -150 -90 -237
-46 -182 -51 -458 -10 -633 97 -423 380 -777 766 -959 288 -136 637 -168 946
-85 531 142 923 576 1014 1123 21 124 16 384 -9 496 -92 412 -351 755 -716
949 -92 49 -250 105 -370 131 -104 23 -389 29 -495 10z m517 -149 c470 -125
820 -490 919 -957 45 -210 27 -477 -43 -679 -81 -228 -236 -439 -433 -588
-140 -105 -367 -202 -545 -233 -96 -16 -313 -16 -410 0 -246 43 -495 169 -671
341 -325 318 -449 767 -337 1218 11 45 24 82 28 82 18 0 181 -186 208 -239 16
-31 40 -101 52 -156 12 -55 34 -122 48 -150 17 -34 97 -124 261 -290 129 -132
245 -245 256 -252 72 -43 199 39 225 146 8 36 8 56 -4 94 l-14 48 31 -25 c208
-170 412 -262 534 -243 42 7 99 49 124 92 16 27 27 33 80 43 120 22 182 93
185 212 1 36 9 87 19 114 16 42 17 54 6 90 -7 23 -14 71 -16 107 -2 36 -10 80
-19 97 -40 77 -267 301 -466 461 -85 68 -300 182 -550 291 -91 40 -196 88
-235 108 -77 38 -185 110 -185 123 0 16 204 108 295 134 135 38 193 44 385 40
150 -2 189 -7 272 -29z"/>
</g>
</svg>
