<?xml version="1.0" standalone="no"?>
<!DOCTYPE svg PUBLIC "-//W3C//DTD SVG 20010904//EN"
 "http://www.w3.org/TR/2001/REC-SVG-20010904/DTD/svg10.dtd">
<svg version="1.0" xmlns="http://www.w3.org/2000/svg"
 width="335.000000pt" height="335.000000pt" viewBox="0 0 335.000000 335.000000"
 preserveAspectRatio="xMidYMid meet">

<g transform="translate(0.000000,335.000000) scale(0.100000,-0.100000)"
fill="#000000" stroke="none">
<path d="M1505 3339 c-497 -52 -959 -333 -1228 -749 -249 -386 -333 -844 -233
-1280 97 -425 346 -787 701 -1022 566 -376 1276 -380 1845 -10 98 63 213 157
286 234 66 69 136 156 153 189 7 14 26 41 42 60 40 47 141 246 179 354 175
495 110 1031 -178 1475 -336 519 -952 813 -1567 749z m326 -139 c367 -38 675
-185 940 -449 300 -300 451 -661 452 -1081 0 -165 -12 -257 -53 -416 -155
-590 -671 -1040 -1287 -1124 -129 -18 -399 -8 -521 19 -284 62 -559 209 -761
404 -137 133 -279 343 -350 517 -79 195 -114 381 -114 600 1 238 48 448 148
655 284 592 899 940 1546 875z"/>
<path d="M1533 3050 c-467 -53 -879 -334 -1088 -742 -169 -329 -205 -703 -99
-1040 144 -459 490 -800 949 -933 696 -202 1442 183 1685 870 50 143 70 246
77 405 6 148 -11 323 -40 403 l-12 34 -265 -191 -264 -192 -17 -164 c-14 -140
-21 -177 -48 -240 -33 -79 -89 -160 -131 -192 -28 -20 -332 -126 -444 -154
-62 -16 -69 -16 -84 0 -20 20 -11 29 54 50 59 19 157 75 197 114 50 47 71 107
72 202 0 47 -3 101 -7 120 l-8 35 26 -30 25 -30 -20 54 c-23 61 -79 125 -124
141 -29 10 -29 9 -14 -8 16 -17 13 -22 -49 -86 l-66 -68 7 76 c6 63 4 76 -8
76 -11 0 -18 -24 -27 -97 -14 -111 -27 -148 -71 -205 -23 -28 -29 -42 -21 -50
15 -15 27 -4 77 66 22 31 46 56 54 56 8 0 25 -10 38 -22 l23 -21 0 22 c0 12
-11 33 -24 46 l-25 25 45 52 c74 87 89 86 120 -10 24 -75 25 -182 1 -244 -44
-115 -263 -227 -420 -216 -49 4 -62 9 -93 39 -62 60 -68 78 -60 214 3 66 17
183 30 260 14 77 23 142 21 144 -2 2 -10 1 -18 -2 -18 -7 -56 -238 -64 -393
-6 -112 -7 -114 -30 -114 -37 0 -88 25 -111 55 -42 53 -26 230 43 500 18 72
35 136 37 144 1 8 -4 16 -12 18 -11 3 -22 -21 -42 -94 -44 -158 -69 -282 -75
-370 -4 -62 -10 -83 -20 -83 -26 0 -53 20 -83 62 -26 36 -30 50 -30 109 0 77
27 247 70 433 35 151 34 146 16 146 -17 0 -66 -196 -99 -392 l-21 -127 -25 6
c-67 15 -74 57 -46 280 33 267 64 368 127 416 78 60 226 108 458 148 91 16
155 19 307 18 l192 -1 158 133 c87 73 188 159 226 191 l67 58 -59 44 c-137
100 -374 199 -555 231 -111 19 -288 26 -383 15z m361 -146 c120 -23 230 -61
336 -115 149 -76 152 -55 -25 -203 l-154 -129 -198 -2 c-187 -1 -208 -3 -377
-39 -331 -69 -442 -130 -494 -269 -38 -101 -89 -465 -80 -572 5 -62 31 -98 86
-121 28 -13 32 -19 32 -53 0 -57 72 -157 130 -181 19 -8 31 -23 39 -49 19 -66
105 -130 174 -131 15 0 27 -4 27 -9 0 -18 85 -103 122 -122 23 -12 64 -21 99
-23 49 -3 65 -8 87 -30 48 -45 115 -33 426 75 166 58 181 65 226 110 103 103
155 232 176 437 8 81 17 149 22 153 4 4 83 61 177 128 l170 122 8 -28 c15 -53
10 -313 -7 -407 -46 -244 -151 -452 -317 -630 -172 -184 -370 -299 -627 -363
-95 -24 -126 -27 -282 -28 -131 0 -196 4 -257 18 -383 82 -693 316 -865 654
-86 168 -127 323 -135 519 -13 317 70 581 262 829 214 275 518 439 890 479 65
6 244 -4 329 -20z"/>
</g>
</svg>
