<?xml version="1.0" standalone="no"?>
<!DOCTYPE svg PUBLIC "-//W3C//DTD SVG 20010904//EN"
 "http://www.w3.org/TR/2001/REC-SVG-20010904/DTD/svg10.dtd">
<svg version="1.0" xmlns="http://www.w3.org/2000/svg"
 width="481.000000pt" height="398.000000pt" viewBox="0 0 481.000000 398.000000"
 preserveAspectRatio="xMidYMid meet">
<metadata>
Created by potrace 1.16, written by Peter Selinger 2001-2019
</metadata>
<g transform="translate(0.000000,398.000000) scale(0.100000,-0.100000)"
fill="#000000" stroke="none">
<path d="M2290 3889 c-178 -19 -424 -86 -597 -163 -317 -141 -630 -419 -816
-725 -135 -221 -239 -531 -264 -787 -27 -272 17 -600 114 -848 97 -249 238
-463 432 -657 306 -305 674 -483 1111 -534 158 -19 254 -19 407 0 431 53 821
243 1117 542 280 284 448 617 522 1033 21 117 24 418 6 535 -31 191 -121 471
-195 605 -111 201 -209 331 -363 480 -251 242 -536 398 -873 475 -226 52 -403
65 -601 44z m436 -158 c210 -36 327 -73 499 -157 446 -217 794 -647 910 -1127
100 -412 59 -805 -125 -1182 -197 -403 -557 -722 -980 -870 -535 -186 -1137
-94 -1595 244 -574 424 -825 1157 -635 1858 74 273 228 531 445 748 228 228
489 377 796 455 208 53 483 66 685 31z"/>
<path d="M2290 3574 c-391 -49 -738 -228 -990 -512 -96 -107 -213 -290 -264
-411 -100 -240 -120 -340 -120 -616 -1 -182 2 -224 22 -315 118 -539 485 -957
1008 -1149 239 -87 563 -107 837 -50 190 39 435 151 597 271 150 112 326 313
423 483 45 79 117 243 117 266 0 9 -49 11 -202 7 l-202 -6 -29 -33 c-64 -74
-181 -189 -217 -214 -63 -44 -106 -54 -226 -55 -61 0 -114 3 -117 6 -4 4 9 25
29 47 63 69 82 154 49 218 -17 32 -69 69 -97 69 -14 0 -16 7 -11 48 5 45 3 50
-26 75 -58 48 -58 48 -451 -8 -214 -31 -301 -38 -545 -46 -443 -16 -493 -10
-523 57 -31 68 2 129 76 138 26 3 180 22 342 41 564 66 630 79 630 123 -1 48
-33 67 -465 272 -340 161 -396 192 -419 231 -36 60 -7 129 54 129 16 0 83 -18
147 -39 332 -111 746 -241 766 -241 14 0 16 -10 11 -77 -6 -76 -5 -82 45 -218
29 -79 61 -148 73 -157 12 -11 37 -18 63 -18 90 0 146 88 169 263 7 60 18 113
23 118 4 4 24 10 43 11 l34 3 -4 -45 c-3 -25 -5 -92 -5 -150 0 -93 3 -110 24
-147 13 -23 42 -55 65 -71 41 -29 159 -72 199 -72 32 0 8 15 -48 29 -70 17
-141 66 -171 116 -33 56 -39 123 -24 239 13 100 9 140 -14 149 -8 3 -42 0 -75
-6 -60 -11 -62 -13 -72 -51 -6 -21 -14 -76 -19 -122 -13 -128 -66 -224 -123
-224 -32 0 -49 22 -77 100 -12 36 -34 96 -47 135 -27 75 -26 107 4 200 32 101
137 205 272 268 95 45 162 44 265 -6 44 -21 132 -73 196 -116 64 -43 131 -86
149 -96 33 -16 250 -34 440 -35 l83 0 -7 38 c-4 20 -23 80 -42 132 -145 388
-412 689 -768 865 -229 113 -402 156 -660 160 -88 2 -176 1 -195 -1z m345
-155 c28 -5 70 -13 95 -18 25 -4 74 -16 109 -26 49 -14 60 -20 45 -26 -13 -5
-8 -7 18 -7 43 1 125 -32 108 -42 -7 -5 -4 -9 9 -13 13 -3 19 -1 14 5 -3 6 -2
9 3 7 66 -34 84 -45 84 -51 0 -5 6 -8 13 -8 21 0 77 -30 77 -41 0 -6 -8 -5
-20 1 -14 7 -20 7 -20 0 0 -5 6 -10 13 -10 7 0 23 -13 35 -30 13 -16 30 -30
40 -29 13 0 12 3 -5 11 -21 10 -38 36 -29 45 3 3 22 -8 43 -23 53 -40 67 -54
53 -54 -7 0 -7 -7 2 -22 7 -13 11 -26 10 -30 -4 -15 19 -8 24 7 9 22 84 -39
84 -68 0 -12 5 -29 11 -37 8 -11 9 -8 5 15 -6 29 -6 29 33 -15 30 -35 38 -52
36 -76 -1 -24 1 -31 12 -27 10 4 11 9 4 16 -14 14 -14 30 -2 22 20 -12 71 -97
65 -107 -5 -7 -2 -8 6 -3 9 6 12 4 8 -6 -3 -8 -9 -25 -13 -39 l-7 -25 19 22
20 22 14 -27 c8 -15 18 -30 23 -34 5 -3 9 -20 9 -37 0 -16 3 -28 7 -26 10 6
52 -83 45 -96 -4 -6 2 -17 14 -25 33 -24 25 -34 -26 -33 -45 2 -46 2 -13 8 45
8 18 20 -29 13 -23 -3 -29 -7 -20 -13 9 -6 1 -9 -23 -9 -24 0 -38 5 -39 13 0
9 -2 9 -6 0 -6 -16 -39 -17 -48 -3 -4 6 -21 8 -41 4 -21 -4 -34 -2 -34 4 0 6
-8 12 -17 15 -15 3 -14 6 7 16 l25 11 -26 -5 c-21 -4 -26 -1 -25 12 0 8 -5 18
-12 20 -7 3 -10 -1 -6 -11 6 -16 -11 -23 -18 -8 -1 4 -28 23 -58 42 -30 19
-57 37 -60 40 -3 3 -18 11 -33 18 -24 10 -26 14 -15 25 7 8 20 17 28 20 8 4 2
4 -15 1 -16 -3 -33 -10 -36 -16 -4 -7 -9 -6 -13 1 -4 6 -3 11 2 11 6 0 8 9 5
19 -5 21 -46 37 -51 21 -5 -13 -43 -12 -62 1 -11 8 -9 9 10 3 14 -3 22 -3 17
2 -9 10 -93 18 -172 16 -55 -1 -211 -42 -200 -53 2 -3 -12 -13 -31 -24 -34
-18 -36 -18 -45 -2 -11 18 -29 23 -29 8 0 -5 8 -18 18 -27 16 -17 16 -18 0
-11 -10 3 -18 2 -18 -4 0 -17 -111 -120 -122 -113 -7 5 -9 0 -6 -14 4 -15 2
-19 -9 -15 -12 5 -14 1 -9 -15 9 -28 -9 -36 -44 -19 -16 8 -47 18 -70 22 -22
4 -40 11 -40 16 0 12 27 12 35 -1 3 -5 11 -10 17 -10 7 0 7 4 0 13 -6 6 -12
17 -14 22 -1 5 -5 9 -8 8 -3 -1 -14 -5 -24 -9 -12 -5 -17 -4 -13 3 4 6 -5 10
-22 9 -16 -1 -27 -4 -24 -8 2 -5 -4 -8 -15 -8 -28 0 -83 21 -77 29 5 8 -59 41
-78 41 -7 -1 2 -7 18 -15 46 -21 13 -17 -65 7 -38 12 -66 24 -61 28 6 3 -8 6
-30 6 -23 1 -50 6 -62 12 -12 6 -70 26 -129 44 -79 24 -108 37 -108 49 0 17
-84 48 -96 36 -3 -3 10 -9 30 -12 20 -4 39 -11 42 -16 6 -11 0 -11 -51 1 -49
11 -102 -3 -138 -36 -15 -14 -27 -19 -29 -12 -6 17 -48 -14 -48 -36 0 -16 2
-16 21 5 l20 24 -8 -25 c-4 -14 -8 -61 -7 -105 1 -75 0 -78 -13 -50 l-13 30 2
-30 c3 -24 8 -30 27 -30 14 0 27 -7 29 -15 3 -8 10 -18 16 -22 8 -6 6 -11 -4
-17 -8 -6 -11 -13 -7 -18 5 -4 12 -2 16 5 6 10 22 5 65 -21 56 -34 59 -44 16
-60 -13 -5 -13 -6 0 -6 9 -1 25 5 36 13 16 12 23 12 37 1 14 -10 15 -14 5 -18
-7 -2 -3 -2 9 -1 29 5 54 -5 46 -19 -4 -7 0 -8 11 -4 10 4 35 -3 61 -16 37
-20 41 -25 27 -35 -14 -10 -13 -11 9 -6 17 3 42 -4 73 -20 27 -14 51 -24 55
-22 3 2 17 -2 31 -10 23 -12 23 -13 5 -15 -12 0 -6 -5 15 -10 64 -18 90 -31
90 -48 0 -12 2 -13 8 -3 7 10 15 10 38 1 27 -10 28 -12 9 -20 -16 -8 -15 -8 7
-4 17 3 40 -3 63 -16 43 -25 39 -36 -7 -20 -30 10 -31 9 -14 -4 19 -14 18 -15
-13 -15 -19 0 -30 4 -26 10 4 6 -7 10 -27 10 -30 -1 -31 -2 -15 -14 17 -14 -1
-17 -158 -32 -16 -1 -61 -7 -100 -13 -38 -5 -119 -14 -180 -21 -279 -28 -363
-45 -357 -71 1 -6 -4 -22 -13 -35 -8 -13 -15 -31 -15 -41 -1 -16 -2 -16 -10
-2 -12 21 -2 57 19 62 15 4 15 5 0 6 -32 2 -43 -25 -29 -74 10 -35 10 -51 0
-74 -6 -17 -8 -35 -4 -42 5 -9 10 -7 15 7 7 18 8 18 9 -1 0 -11 7 -28 15 -39
8 -11 12 -30 8 -47 -5 -25 -2 -29 16 -29 11 0 21 4 21 10 0 5 15 1 33 -10 17
-11 38 -20 46 -20 8 0 20 -8 27 -17 8 -11 13 -13 14 -5 0 9 39 12 163 10 103
0 146 -4 117 -8 l-45 -7 53 -1 c39 -2 54 2 58 13 4 9 19 15 36 15 17 0 27 -4
23 -10 -4 -6 7 -10 27 -9 27 0 30 2 13 9 -14 6 0 9 45 9 45 0 59 -3 45 -9 -11
-5 -14 -9 -8 -9 7 -1 15 -13 19 -28 18 -87 86 -171 168 -212 34 -17 45 -26 37
-34 -14 -14 -14 -30 -1 -22 6 3 10 1 10 -5 0 -6 15 -32 33 -58 17 -26 32 -53
32 -61 0 -8 6 -16 14 -19 9 -3 11 0 6 8 -6 10 -4 12 9 7 10 -4 22 -7 27 -7 6
0 8 -4 5 -9 -11 -18 83 -36 201 -38 123 -2 145 3 225 47 9 5 31 7 50 4 21 -4
40 0 53 10 11 8 15 16 8 16 -6 0 -15 -5 -18 -10 -3 -6 -18 -10 -33 -9 -26 1
-26 1 8 16 27 12 76 16 216 17 137 1 185 4 197 15 9 7 24 11 32 7 9 -3 14 -2
10 3 -3 5 10 18 28 30 18 11 43 29 56 40 12 11 29 17 36 15 7 -3 16 -1 20 5 4
7 -1 8 -12 4 -16 -6 -16 -5 -4 11 8 9 20 15 27 12 9 -3 11 1 7 12 -3 9 -3 14
2 10 11 -10 36 12 29 24 -4 6 3 8 17 3 17 -4 20 -4 10 3 -11 8 -7 18 22 49 20
21 37 41 37 46 0 4 12 7 26 7 14 0 23 -3 20 -8 -7 -11 77 -2 92 11 19 15 24 3
11 -26 -8 -17 -17 -23 -27 -19 -12 4 -14 1 -9 -12 9 -22 -9 -56 -28 -56 -17 0
-38 -36 -32 -53 3 -7 8 0 12 16 6 23 25 39 25 21 0 -15 -43 -64 -55 -64 -9 0
-12 -6 -8 -15 3 -9 -3 -25 -13 -36 -17 -19 -19 -19 -31 -3 -15 21 -17 11 -3
-16 7 -13 6 -21 -5 -30 -11 -9 -15 -9 -15 -1 0 6 5 11 12 11 6 0 9 3 6 6 -4 3
-16 0 -28 -6 -17 -9 -20 -14 -10 -20 11 -7 7 -17 -14 -44 -15 -20 -32 -34 -37
-31 -5 4 -13 -5 -19 -19 -7 -19 -14 -24 -26 -19 -13 5 -16 2 -11 -10 4 -10 -5
-24 -28 -41 -39 -30 -45 -31 -45 -11 0 8 7 15 15 15 8 0 15 5 15 10 0 15 -16
12 -30 -5 -6 -8 -9 -23 -6 -33 7 -21 -14 -36 -49 -34 -11 1 -14 -1 -7 -4 24
-11 12 -26 -15 -19 -24 6 -25 5 -12 -11 12 -16 12 -17 -3 -11 -12 4 -18 2 -18
-8 0 -8 -7 -15 -15 -15 -8 0 -15 -4 -15 -9 0 -5 -12 -14 -27 -20 -16 -6 -46
-22 -68 -36 -26 -16 -49 -23 -65 -19 -20 4 -22 2 -10 -7 12 -8 9 -9 -12 -5
-15 3 -30 2 -33 -4 -3 -6 1 -7 9 -4 9 3 16 3 16 0 0 -13 -73 -37 -96 -32 -14
4 -26 1 -31 -7 -4 -8 -39 -22 -78 -31 -38 -10 -88 -22 -110 -28 -67 -18 -339
-18 -430 0 -69 14 -76 17 -50 23 l30 7 -32 1 c-17 0 -40 4 -50 7 -15 5 -15 4
-3 -5 13 -9 13 -11 1 -11 -17 0 -78 18 -103 31 -10 5 -28 9 -40 9 -30 1 -161
64 -152 73 8 8 -16 29 -60 53 -20 11 -31 13 -39 5 -8 -8 -8 -11 1 -12 30 -3
86 -28 79 -35 -8 -8 -107 37 -107 48 0 4 -6 8 -13 8 -7 0 -17 10 -22 23 -6 12
-17 22 -25 23 -30 2 -35 4 -22 13 10 6 9 10 -7 14 -14 3 -19 1 -14 -6 7 -13
-17 5 -57 41 -14 12 -29 22 -33 22 -5 0 -6 7 -3 16 6 16 -12 60 -21 50 -3 -3
0 -12 7 -21 7 -9 10 -18 7 -22 -4 -3 -29 17 -57 44 -46 46 -50 53 -40 77 6 18
6 25 0 21 -6 -3 -10 -13 -10 -21 0 -8 -5 -14 -11 -14 -7 0 -9 9 -5 23 4 16 -1
26 -17 36 -20 13 -21 13 -8 -3 8 -9 11 -19 8 -22 -9 -10 -27 34 -21 50 3 9 1
16 -5 16 -6 0 -11 -6 -11 -12 0 -8 -7 -5 -15 6 -8 11 -15 25 -15 30 0 6 4 4
10 -4 5 -8 12 -11 17 -7 9 10 -18 28 -34 23 -10 -4 -51 64 -122 203 -13 25
-24 63 -25 83 0 23 -6 38 -13 38 -7 0 -14 7 -14 15 -1 8 -3 27 -4 43 -2 15 -4
54 -5 88 -1 33 -6 67 -11 75 -5 8 -9 10 -9 4 0 -5 -5 -3 -11 5 -9 12 -10 12
-5 -3 3 -10 7 -31 7 -45 1 -27 1 -27 9 3 5 22 7 14 7 -35 l1 -65 -14 45 c-8
25 -17 68 -20 95 -18 172 -16 219 5 129 l9 -39 1 38 c1 25 -7 50 -20 68 -19
27 -20 35 -10 75 7 25 9 55 6 65 -12 35 29 254 45 244 9 -6 20 19 19 43 0 14
-2 13 -9 -3 -5 -11 -9 -15 -9 -10 -1 14 24 83 32 91 4 4 7 16 7 28 0 15 3 17
11 9 9 -9 8 -18 -5 -37 -18 -28 -21 -46 -7 -46 5 0 14 14 21 30 10 24 10 36 0
59 -10 25 -9 34 4 53 11 15 16 18 17 8 0 -10 3 -8 9 5 12 27 12 43 0 25 -5 -8
-10 -10 -10 -5 0 16 13 31 33 38 13 5 17 13 12 28 -6 18 -4 21 9 16 14 -6 16
-3 11 14 -9 27 20 70 41 62 11 -4 15 -1 12 13 -2 13 2 18 15 16 12 -2 17 4 17
18 0 13 -4 18 -11 15 -6 -4 -5 2 3 14 7 12 19 19 27 16 8 -3 11 0 8 9 -4 9 2
16 15 19 14 4 19 11 14 23 -5 12 -2 15 9 10 9 -3 13 -2 10 4 -7 12 45 79 85
109 37 27 39 21 5 -14 -38 -37 -16 -30 30 11 26 23 35 38 27 41 -8 3 1 16 25
34 21 16 43 33 49 38 5 4 21 14 35 20 23 11 23 11 5 -3 -11 -9 -17 -18 -14
-22 7 -7 49 32 46 44 -1 4 12 14 28 22 16 8 31 18 34 21 13 15 72 39 82 33 6
-4 8 -3 5 3 -14 22 170 86 358 123 33 7 65 14 70 15 25 8 315 3 360 -6z m546
-714 c-1 -15 -24 -12 -29 3 -3 9 2 13 12 10 10 -1 17 -7 17 -13z m-861 -195
c0 -5 -2 -10 -4 -10 -3 0 -8 5 -11 10 -3 6 -1 10 4 10 6 0 11 -4 11 -10z m508
-836 c32 -22 27 -45 -20 -91 -127 -120 -344 -214 -504 -216 -71 -1 -86 2 -127
26 -60 35 -97 97 -97 160 l0 46 43 6 c23 3 159 21 302 40 143 20 265 37 270
39 27 11 113 5 133 -10z m-1523 -64 c3 -5 1 -10 -4 -10 -6 0 -11 5 -11 10 0 6
2 10 4 10 3 0 8 -4 11 -10z m1640 -105 c37 -36 34 -98 -5 -152 -75 -102 -254
-194 -391 -201 -102 -5 -177 16 -224 64 -28 28 -35 42 -33 67 2 18 9 31 18 32
8 1 41 5 72 9 116 13 316 101 413 181 42 35 116 35 150 0z m723 -52 c-10 -2
-26 -2 -35 0 -10 3 -2 5 17 5 19 0 27 -2 18 -5z"/>
<path d="M2100 3374 l-25 -15 25 7 c14 3 32 10 40 15 13 7 13 8 0 8 -8 0 -26
-6 -40 -15z"/>
<path d="M2173 3383 c9 -2 23 -2 30 0 6 3 -1 5 -18 5 -16 0 -22 -2 -12 -5z"/>
<path d="M2642 3385 c2 -3 36 -7 74 -10 47 -3 64 -2 54 5 -15 10 -138 15 -128
5z"/>
<path d="M2045 3360 c-3 -5 -1 -10 4 -10 6 0 11 5 11 10 0 6 -2 10 -4 10 -3 0
-8 -4 -11 -10z"/>
<path d="M2820 3360 c0 -6 7 -10 15 -10 8 0 15 2 15 4 0 2 -7 6 -15 10 -8 3
-15 1 -15 -4z"/>
<path d="M2673 3349 c24 -6 45 -5 55 1 12 7 2 9 -38 9 -55 -1 -55 -1 -17 -10z"/>
<path d="M1988 3343 c7 -3 16 -2 19 1 4 3 -2 6 -13 5 -11 0 -14 -3 -6 -6z"/>
<path d="M2960 3310 c0 -5 5 -10 11 -10 5 0 7 5 4 10 -3 6 -8 10 -11 10 -2 0
-4 -4 -4 -10z"/>
<path d="M1885 3300 c-13 -6 -15 -9 -5 -9 8 0 22 4 30 9 18 12 2 12 -25 0z"/>
<path d="M2960 3280 c0 -5 5 -10 11 -10 5 0 7 5 4 10 -3 6 -8 10 -11 10 -2 0
-4 -4 -4 -10z"/>
<path d="M1730 3209 c0 -5 5 -7 10 -4 6 3 10 8 10 11 0 2 -4 4 -10 4 -5 0 -10
-5 -10 -11z"/>
<path d="M3125 3210 c-3 -6 1 -7 9 -4 18 7 21 14 7 14 -6 0 -13 -4 -16 -10z"/>
<path d="M3058 3193 c7 -3 16 -2 19 1 4 3 -2 6 -13 5 -11 0 -14 -3 -6 -6z"/>
<path d="M3138 3183 c7 -3 16 -2 19 1 4 3 -2 6 -13 5 -11 0 -14 -3 -6 -6z"/>
<path d="M1618 3133 c7 -3 16 -2 19 1 4 3 -2 6 -13 5 -11 0 -14 -3 -6 -6z"/>
<path d="M1590 3121 c0 -6 4 -13 10 -16 6 -3 7 1 4 9 -7 18 -14 21 -14 7z"/>
<path d="M3200 3121 c0 -5 7 -12 16 -15 14 -5 15 -4 4 9 -14 17 -20 19 -20 6z"/>
<path d="M3277 3116 c-4 -10 -1 -13 8 -9 8 3 12 9 9 14 -7 12 -11 11 -17 -5z"/>
<path d="M3370 2993 c0 -10 4 -14 8 -8 4 6 11 13 16 18 5 4 2 7 -7 7 -10 0
-17 -8 -17 -17z"/>
<path d="M3551 2834 c0 -11 3 -14 6 -6 3 7 2 16 -1 19 -3 4 -6 -2 -5 -13z"/>
<path d="M3521 2814 c0 -11 3 -14 6 -6 3 7 2 16 -1 19 -3 4 -6 -2 -5 -13z"/>
<path d="M1342 2800 c-7 -11 -8 -20 -3 -20 9 0 24 30 18 36 -1 2 -8 -6 -15
-16z"/>
<path d="M2740 2770 c-24 -8 -23 -8 8 -9 20 -1 31 3 27 9 -3 6 -7 10 -8 9 -1
-1 -13 -5 -27 -9z"/>
<path d="M2943 2773 c9 -2 25 -2 35 0 9 3 1 5 -18 5 -19 0 -27 -2 -17 -5z"/>
<path d="M3078 2773 c7 -3 16 -2 19 1 4 3 -2 6 -13 5 -11 0 -14 -3 -6 -6z"/>
<path d="M1500 2761 c0 -11 31 -24 39 -16 3 3 -1 10 -9 15 -19 12 -30 12 -30
1z"/>
<path d="M2868 2763 c12 -2 30 -2 40 0 9 3 -1 5 -23 4 -22 0 -30 -2 -17 -4z"/>
<path d="M3013 2763 c9 -2 25 -2 35 0 9 3 1 5 -18 5 -19 0 -27 -2 -17 -5z"/>
<path d="M3180 2760 c0 -5 5 -10 10 -10 6 0 10 5 10 10 0 6 -4 10 -10 10 -5 0
-10 -4 -10 -10z"/>
<path d="M1261 2750 c0 -8 4 -24 9 -35 5 -13 9 -14 9 -5 0 8 -4 24 -9 35 -5
13 -9 14 -9 5z"/>
<path d="M2784 2748 c-8 -12 10 -16 34 -7 12 5 22 11 22 14 0 7 -51 2 -56 -7z"/>
<path d="M1468 2733 c7 -3 16 -2 19 1 4 3 -2 6 -13 5 -11 0 -14 -3 -6 -6z"/>
<path d="M2735 2730 c3 -5 12 -7 20 -3 21 7 19 13 -6 13 -11 0 -18 -4 -14 -10z"/>
<path d="M1440 2709 c0 -11 4 -18 10 -14 5 3 7 12 3 20 -7 21 -13 19 -13 -6z"/>
<path d="M1802 2691 c-9 -6 -3 -10 20 -14 18 -3 42 -8 53 -11 11 -4 7 1 -10 9
l-30 16 45 -6 c32 -4 41 -2 30 5 -18 12 -90 13 -108 1z"/>
<path d="M2688 2683 c7 -3 16 -2 19 1 4 3 -2 6 -13 5 -11 0 -14 -3 -6 -6z"/>
<path d="M3263 2673 c-15 -5 -17 -23 -4 -23 5 0 11 7 15 15 3 8 4 15 3 14 -1
0 -8 -3 -14 -6z"/>
<path d="M1930 2650 c0 -5 16 -10 35 -10 19 0 35 5 35 10 0 6 -16 10 -35 10
-19 0 -35 -4 -35 -10z"/>
<path d="M1362 2610 c0 -14 2 -19 5 -12 2 6 2 18 0 25 -3 6 -5 1 -5 -13z"/>
<path d="M1387 2607 c-4 -10 -7 -26 -7 -35 1 -15 2 -15 11 1 6 10 9 25 7 35
-3 16 -4 15 -11 -1z"/>
<path d="M2585 2610 c-4 -6 -11 -8 -16 -5 -5 4 -9 -1 -9 -10 0 -12 4 -14 19
-5 23 12 36 30 22 30 -5 0 -13 -5 -16 -10z"/>
<path d="M3349 2599 c12 -12 25 -18 28 -15 4 3 -2 13 -13 21 -29 22 -41 18
-15 -6z"/>
<path d="M3695 2584 c18 -44 18 -47 3 -41 -7 2 -22 1 -33 -4 -18 -7 -18 -8 -2
-8 10 -1 16 -5 13 -10 -3 -4 5 -6 18 -4 20 4 24 10 20 35 -5 44 -14 68 -25 68
-5 0 -2 -16 6 -36z"/>
<path d="M2038 2603 c7 -3 16 -2 19 1 4 3 -2 6 -13 5 -11 0 -14 -3 -6 -6z"/>
<path d="M1171 2580 c0 -8 4 -22 9 -30 12 -18 12 -2 0 25 -6 13 -9 15 -9 5z"/>
<path d="M1363 2561 c1 -14 9 -26 17 -28 10 -3 11 -2 4 4 -7 4 -14 17 -17 28
-5 16 -5 15 -4 -4z"/>
<path d="M2248 2533 c7 -3 16 -2 19 1 4 3 -2 6 -13 5 -11 0 -14 -3 -6 -6z"/>
<path d="M3503 2530 c-13 -5 -23 -12 -23 -16 0 -3 8 -3 18 1 9 5 37 11 62 15
l45 7 -40 1 c-22 0 -50 -3 -62 -8z"/>
<path d="M2435 2515 c-16 -8 -23 -14 -15 -14 8 0 26 6 40 14 32 18 15 18 -25
0z"/>
<path d="M1191 2504 c0 -11 3 -14 6 -6 3 7 2 16 -1 19 -3 4 -6 -2 -5 -13z"/>
<path d="M1362 2500 c0 -14 2 -19 5 -12 2 6 2 18 0 25 -3 6 -5 1 -5 -13z"/>
<path d="M3557 2513 c18 -2 50 -2 70 0 21 2 7 4 -32 4 -38 0 -55 -2 -38 -4z"/>
<path d="M2460 2482 c0 -5 7 -13 16 -16 10 -4 14 -1 12 6 -5 15 -28 23 -28 10z"/>
<path d="M1091 2339 c-13 -39 -13 -39 -2 -39 10 0 26 58 18 66 -3 3 -10 -9
-16 -27z"/>
<path d="M1520 2360 c0 -12 28 -25 36 -17 3 3 -4 10 -15 17 -15 7 -21 7 -21 0z"/>
<path d="M1113 2205 c0 -38 2 -53 4 -32 2 20 2 52 0 70 -2 17 -4 1 -4 -38z"/>
<path d="M1690 2260 c-8 -5 -12 -11 -10 -14 3 -2 14 2 24 10 22 15 10 19 -14
4z"/>
<path d="M1072 2206 c-13 -63 -9 -90 4 -34 l8 33 7 -35 6 -35 1 40 c0 22 -3
51 -7 65 -6 21 -9 15 -19 -34z"/>
<path d="M1720 2239 c-41 -21 -27 -25 20 -5 18 7 29 16 24 19 -5 3 -25 -3 -44
-14z"/>
<path d="M2000 2110 c0 -6 7 -10 15 -10 8 0 15 2 15 4 0 2 -7 6 -15 10 -8 3
-15 1 -15 -4z"/>
<path d="M1081 2074 c0 -11 3 -14 6 -6 3 7 2 16 -1 19 -3 4 -6 -2 -5 -13z"/>
<path d="M1111 2074 c0 -11 3 -14 6 -6 3 7 2 16 -1 19 -3 4 -6 -2 -5 -13z"/>
<path d="M2000 2070 c0 -5 4 -10 9 -10 6 0 13 5 16 10 3 6 -1 10 -9 10 -9 0
-16 -4 -16 -10z"/>
<path d="M1865 2049 l-30 -7 35 0 c19 -1 53 3 75 8 l40 8 -45 -1 c-25 -1 -58
-4 -75 -8z"/>
<path d="M2030 2050 c0 -5 7 -7 15 -4 8 4 15 8 15 10 0 2 -7 4 -15 4 -8 0 -15
-4 -15 -10z"/>
<path d="M1970 2040 c-35 -7 -35 -7 -5 -9 17 0 37 4 45 9 17 11 11 11 -40 0z"/>
<path d="M1875 2019 c-40 -6 -39 -6 13 -8 51 -1 65 3 40 11 -7 2 -31 1 -53 -3z"/>
<path d="M1680 2010 c0 -5 16 -10 35 -10 19 0 35 5 35 10 0 6 -16 10 -35 10
-19 0 -35 -4 -35 -10z"/>
<path d="M1107 1988 c-3 -13 -8 -54 -10 -93 -2 -38 -2 -52 0 -30 4 26 7 34 12
23 3 -10 6 14 6 52 0 39 -1 70 -1 70 -1 0 -4 -10 -7 -22z"/>
<path d="M1575 1970 c-3 -6 1 -7 9 -4 18 7 21 14 7 14 -6 0 -13 -4 -16 -10z"/>
<path d="M1658 1973 c7 -3 16 -2 19 1 4 3 -2 6 -13 5 -11 0 -14 -3 -6 -6z"/>
<path d="M1280 1960 c0 -5 7 -7 15 -4 8 4 15 8 15 10 0 2 -7 4 -15 4 -8 0 -15
-4 -15 -10z"/>
<path d="M1430 1960 c-8 -5 -10 -10 -5 -10 6 0 17 5 25 10 8 5 11 10 5 10 -5
0 -17 -5 -25 -10z"/>
<path d="M1528 1963 c6 -2 18 -2 25 0 6 3 1 5 -13 5 -14 0 -19 -2 -12 -5z"/>
<path d="M1320 1940 c-13 -8 -12 -10 3 -10 9 0 17 5 17 10 0 12 -1 12 -20 0z"/>
<path d="M1211 1804 c0 -11 3 -14 6 -6 3 7 2 16 -1 19 -3 4 -6 -2 -5 -13z"/>
<path d="M1204 1738 c0 -20 4 -35 8 -32 4 3 8 12 8 20 0 8 5 14 10 14 6 0 10
8 10 18 -1 16 -2 16 -14 -1 -14 -18 -14 -18 -19 0 -2 10 -4 1 -3 -19z"/>
<path d="M1162 1540 c0 -14 2 -19 5 -12 2 6 2 18 0 25 -3 6 -5 1 -5 -13z"/>
<path d="M1192 1540 c0 -14 2 -19 5 -12 2 6 2 18 0 25 -3 6 -5 1 -5 -13z"/>
<path d="M1930 1539 c0 -5 5 -7 10 -4 6 3 10 8 10 11 0 2 -4 4 -10 4 -5 0 -10
-5 -10 -11z"/>
<path d="M1538 1533 c12 -2 32 -2 45 0 12 2 2 4 -23 4 -25 0 -35 -2 -22 -4z"/>
<path d="M1868 1513 c6 -2 18 -2 25 0 6 3 1 5 -13 5 -14 0 -19 -2 -12 -5z"/>
<path d="M1960 1509 c0 -5 5 -7 10 -4 6 3 10 8 10 11 0 2 -4 4 -10 4 -5 0 -10
-5 -10 -11z"/>
<path d="M1538 1503 c12 -2 32 -2 45 0 12 2 2 4 -23 4 -25 0 -35 -2 -22 -4z"/>
<path d="M1173 1487 c4 -10 7 -24 7 -30 0 -8 3 -8 11 0 9 9 7 16 -7 30 -17 17
-18 17 -11 0z"/>
<path d="M3560 1429 c0 -5 5 -7 10 -4 6 3 10 8 10 11 0 2 -4 4 -10 4 -5 0 -10
-5 -10 -11z"/>
<path d="M2000 1405 c0 -12 42 -66 47 -61 3 3 -6 19 -21 36 -14 17 -26 29 -26
25z"/>
<path d="M1240 1378 c0 -19 2 -20 10 -8 13 19 13 30 0 30 -5 0 -10 -10 -10
-22z"/>
<path d="M3601 1384 c0 -11 3 -14 6 -6 3 7 2 16 -1 19 -3 4 -6 -2 -5 -13z"/>
<path d="M3630 1365 c0 -8 2 -15 4 -15 2 0 6 7 10 15 3 8 1 15 -4 15 -6 0 -10
-7 -10 -15z"/>
<path d="M3527 1274 c-5 -26 4 -31 21 -11 7 8 6 16 -3 24 -10 9 -14 7 -18 -13z"/>
<path d="M2161 1234 c0 -11 3 -14 6 -6 3 7 2 16 -1 19 -3 4 -6 -2 -5 -13z"/>
<path d="M3545 1230 c3 -5 8 -10 11 -10 2 0 4 5 4 10 0 6 -5 10 -11 10 -5 0
-7 -4 -4 -10z"/>
<path d="M2182 1208 c-7 -7 -12 -17 -12 -22 0 -6 5 -4 10 4 9 13 11 13 20 0 8
-13 10 -13 10 2 0 22 -14 30 -28 16z"/>
<path d="M3330 1210 c-8 -5 -11 -12 -8 -16 4 -3 14 1 23 10 18 17 9 21 -15 6z"/>
<path d="M3440 1165 c0 -8 2 -15 4 -15 2 0 6 7 10 15 3 8 1 15 -4 15 -6 0 -10
-7 -10 -15z"/>
<path d="M3238 1143 c6 -2 18 -2 25 0 6 3 1 5 -13 5 -14 0 -19 -2 -12 -5z"/>
<path d="M2888 1133 c7 -3 16 -2 19 1 4 3 -2 6 -13 5 -11 0 -14 -3 -6 -6z"/>
<path d="M2980 1130 c0 -5 9 -10 21 -10 11 0 17 5 14 10 -3 6 -13 10 -21 10
-8 0 -14 -4 -14 -10z"/>
<path d="M3040 1130 c0 -5 5 -10 11 -10 5 0 7 5 4 10 -3 6 -8 10 -11 10 -2 0
-4 -4 -4 -10z"/>
<path d="M3200 1132 c0 -6 -8 -13 -17 -15 -16 -4 -16 -5 -1 -6 18 -1 34 16 24
26 -3 4 -6 1 -6 -5z"/>
<path d="M3455 1131 c-3 -5 -1 -12 5 -16 5 -3 10 1 10 9 0 18 -6 21 -15 7z"/>
<path d="M3083 1123 c9 -2 23 -2 30 0 6 3 -1 5 -18 5 -16 0 -22 -2 -12 -5z"/>
<path d="M3265 1120 c-3 -5 -1 -10 4 -10 6 0 11 5 11 10 0 6 -2 10 -4 10 -3 0
-8 -4 -11 -10z"/>
<path d="M1434 1089 c14 -11 32 -18 39 -16 9 4 9 6 -1 6 -7 1 -20 8 -28 16 -9
8 -20 15 -26 15 -6 0 1 -9 16 -21z"/>
<path d="M3361 1084 c0 -11 3 -14 6 -6 3 7 2 16 -1 19 -3 4 -6 -2 -5 -13z"/>
<path d="M2320 1069 c0 -5 9 -9 20 -9 11 0 20 2 20 4 0 2 -9 6 -20 9 -11 3
-20 1 -20 -4z"/>
<path d="M2390 1040 c-8 -5 -11 -12 -7 -17 5 -4 11 -2 15 4 4 6 18 13 32 16
l25 4 -25 1 c-14 1 -32 -2 -40 -8z"/>
<path d="M2698 1033 c7 -3 16 -2 19 1 4 3 -2 6 -13 5 -11 0 -14 -3 -6 -6z"/>
<path d="M1558 1013 c7 -3 16 -2 19 1 4 3 -2 6 -13 5 -11 0 -14 -3 -6 -6z"/>
<path d="M1572 970 c12 -19 28 -27 28 -14 0 7 -27 34 -34 34 -4 0 -1 -9 6 -20z"/>
<path d="M3110 852 c0 -4 10 -9 22 -9 18 -2 20 0 8 7 -18 12 -30 13 -30 2z"/>
<path d="M3074 824 c-18 -14 -18 -15 4 -4 12 6 22 13 22 15 0 8 -5 6 -26 -11z"/>
<path d="M1899 764 c19 -8 36 -12 39 -9 5 5 -43 25 -61 25 -7 -1 3 -7 22 -16z"/>
<path d="M1958 773 c7 -3 16 -2 19 1 4 3 -2 6 -13 5 -11 0 -14 -3 -6 -6z"/>
<path d="M2000 770 c0 -5 5 -10 11 -10 5 0 7 5 4 10 -3 6 -8 10 -11 10 -2 0
-4 -4 -4 -10z"/>
<path d="M2058 773 c7 -3 16 -2 19 1 4 3 -2 6 -13 5 -11 0 -14 -3 -6 -6z"/>
<path d="M1970 740 c8 -5 20 -10 25 -10 6 0 3 5 -5 10 -8 5 -19 10 -25 10 -5
0 -3 -5 5 -10z"/>
<path d="M2253 689 c-18 -5 -33 -12 -33 -15 0 -3 10 -2 22 2 12 4 45 10 73 14
47 7 48 8 10 8 -22 0 -55 -4 -72 -9z"/>
<path d="M2620 680 c34 -11 60 -11 35 0 -11 5 -29 8 -40 8 -16 0 -15 -2 5 -8z"/>
<path d="M2283 663 c9 -2 23 -2 30 0 6 3 -1 5 -18 5 -16 0 -22 -2 -12 -5z"/>
<path d="M2418 663 c12 -2 32 -2 45 0 12 2 2 4 -23 4 -25 0 -35 -2 -22 -4z"/>
<path d="M2573 663 c9 -2 25 -2 35 0 9 3 1 5 -18 5 -19 0 -27 -2 -17 -5z"/>
</g>
</svg>
