<?xml version="1.0" standalone="no"?>
<!DOCTYPE svg PUBLIC "-//W3C//DTD SVG 20010904//EN"
 "http://www.w3.org/TR/2001/REC-SVG-20010904/DTD/svg10.dtd">
<svg version="1.0" xmlns="http://www.w3.org/2000/svg"
 width="225.000000pt" height="224.000000pt" viewBox="0 0 225.000000 224.000000"
 preserveAspectRatio="xMidYMid meet">
<metadata>
Created by potrace 1.16, written by Peter Selinger 2001-2019
</metadata>
<g transform="translate(0.000000,224.000000) scale(0.100000,-0.100000)"
fill="#000000" stroke="none">
<path d="M975 2229 c-360 -45 -693 -285 -860 -619 -126 -251 -145 -580 -51
-858 93 -272 317 -519 586 -646 342 -161 758 -130 1080 79 106 69 273 240 333
341 61 104 110 217 139 324 20 74 23 108 23 270 0 162 -3 196 -23 270 -29 107
-78 220 -139 324 -60 101 -227 273 -333 341 -222 144 -494 206 -755 174z m270
-84 c217 -19 436 -125 605 -295 141 -141 222 -283 276 -484 22 -85 26 -120 26
-240 0 -153 -13 -231 -57 -356 -125 -348 -441 -612 -800 -670 -78 -12 -239
-15 -312 -5 -357 50 -663 284 -810 620 -58 135 -78 233 -78 400 0 197 25 304
107 470 100 201 284 379 491 475 122 57 354 106 447 94 14 -1 61 -6 105 -9z"/>
<path d="M968 2040 c-82 -13 -202 -55 -288 -101 -481 -258 -633 -879 -327
-1334 87 -128 242 -261 377 -323 41 -18 166 -62 178 -62 2 0 3 59 0 130 l-4
130 -85 88 c-47 48 -108 116 -134 152 -65 88 -98 123 -177 187 -74 58 -83 81
-43 107 56 37 143 5 291 -105 40 -30 103 -43 120 -26 21 21 20 501 -1 654 -7
49 13 106 43 122 28 15 72 14 72 -1 0 -7 14 -118 31 -246 29 -215 30 -235 15
-251 -24 -26 -20 -32 12 -15 15 7 38 14 52 15 25 0 25 0 3 11 -26 13 -25 8
-59 263 -35 264 -36 275 -3 293 15 9 36 13 52 8 33 -8 40 -32 68 -241 39 -301
43 -320 60 -323 20 -4 50 62 130 285 33 92 66 174 74 182 15 15 49 10 80 -13
36 -26 24 -84 -57 -291 -63 -162 -78 -190 -99 -196 -14 -4 -17 -7 -7 -8 9 -1
30 -13 48 -27 l31 -26 -12 25 c-10 21 -3 46 52 188 34 90 68 170 75 178 17 19
53 5 60 -25 4 -14 -11 -102 -34 -207 -54 -240 -51 -222 -62 -382 -11 -163 -17
-186 -82 -281 l-48 -71 0 -136 0 -136 56 19 c176 61 351 195 461 356 40 57 95
176 121 262 23 78 26 104 27 247 0 210 -24 310 -118 476 -112 199 -335 370
-562 429 -91 24 -296 34 -387 20z m165 -92 c-51 -6 -93 -15 -93 -20 0 -6 6 -8
14 -5 8 3 43 8 78 11 43 4 54 3 33 -3 l-30 -9 33 -1 c17 0 32 4 32 9 0 6 27
10 63 10 47 0 58 -3 47 -11 -11 -8 -6 -9 21 -6 32 5 36 3 32 -14 -3 -10 0 -19
6 -19 6 0 11 7 11 15 0 11 5 13 18 6 9 -4 51 -25 92 -45 41 -20 69 -36 63 -36
-7 0 -13 -5 -13 -11 0 -6 7 -9 15 -5 24 9 46 -4 40 -24 -3 -10 0 -17 9 -17 9
0 12 5 9 10 -3 5 0 8 8 5 8 -2 20 -17 27 -31 7 -15 19 -27 26 -27 7 0 21 -9
31 -20 10 -11 15 -20 11 -20 -4 0 9 -14 29 -32 20 -17 32 -34 26 -37 -5 -4 -9
-27 -8 -52 1 -36 6 -45 20 -46 14 -2 17 3 11 20 -3 12 -10 26 -15 32 -14 14
-11 25 7 25 10 0 14 -6 11 -14 -4 -9 -1 -13 6 -10 15 5 47 -46 47 -76 0 -11 5
-18 10 -15 13 8 13 -1 0 -26 -7 -13 -7 -19 0 -19 5 0 10 -8 11 -17 0 -17 1
-17 8 0 5 14 11 6 26 -35 17 -46 20 -79 20 -251 0 -108 -1 -193 -3 -187 -2 5
-8 10 -13 10 -6 0 -9 -21 -8 -47 4 -83 -21 -124 -36 -60 -5 20 -9 26 -12 15
-2 -9 3 -30 11 -47 9 -16 12 -32 7 -35 -5 -3 -12 -17 -15 -31 -11 -44 -85
-143 -170 -229 -45 -46 -52 -49 -103 -52 -39 -1 -56 2 -60 12 -3 8 -9 11 -15
8 -5 -3 5 -17 23 -30 38 -28 43 -29 36 -10 -4 10 2 13 19 12 13 0 24 -4 24 -8
0 -12 -69 -50 -80 -43 -6 4 -9 1 -8 -7 2 -9 -5 -12 -22 -10 -17 2 -21 0 -12
-6 9 -6 6 -12 -13 -20 -42 -19 -45 -15 -45 54 0 36 4 63 9 60 4 -3 16 13 27
35 l18 41 17 -21 18 -22 -1 23 c-1 13 -1 37 0 53 2 24 4 27 12 15 9 -13 13
-12 29 8 13 15 21 18 24 10 2 -7 7 -10 11 -7 3 3 0 30 -8 60 -17 64 -15 304 3
389 19 90 42 154 52 139 14 -23 19 -4 9 32 -12 41 -13 82 -2 75 5 -3 7 9 5 27
-2 24 -1 27 5 12 7 -15 10 -9 15 29 4 26 2 56 -3 66 -12 22 -13 43 -2 36 4 -2
8 4 8 14 0 14 -4 16 -16 10 -11 -6 -20 -3 -29 12 -10 16 -15 18 -21 7 -10 -15
-17 14 -18 65 0 16 -9 40 -20 55 -17 23 -17 28 -5 40 13 11 11 17 -11 40 -28
29 -32 41 -15 41 14 0 43 29 36 37 -4 3 -23 -11 -43 -31 -20 -20 -46 -36 -57
-36 -16 0 -18 3 -9 9 11 7 11 9 -1 14 -19 7 -32 -23 -15 -35 18 -11 48 -10 48
2 0 6 5 10 11 10 6 0 9 -6 6 -12 -2 -7 -19 -14 -38 -14 -19 -1 -44 -2 -56 -3
-36 -2 -69 -42 -88 -106 -14 -48 -19 -56 -27 -42 -6 12 -6 22 1 30 7 9 5 13
-8 13 -10 0 -18 -5 -18 -11 -1 -5 -4 -26 -7 -45 l-7 -35 15 30 16 30 -4 -30
c-12 -81 -18 -108 -36 -147 l-20 -43 -1 40 c0 22 -3 49 -5 60 -3 11 -7 38 -9
60 -3 22 -7 50 -10 62 -3 14 0 23 10 25 12 2 11 11 -8 53 -15 32 -22 65 -21
90 2 31 1 36 -7 22 -10 -17 -12 -16 -30 8 -18 21 -28 25 -78 25 -35 0 -65 -6
-79 -16 -12 -8 -27 -12 -34 -8 -6 4 -8 3 -5 -4 12 -18 -4 -42 -27 -42 -17 0
-18 2 -6 10 8 5 11 10 5 10 -5 0 -21 3 -35 6 -20 4 -22 3 -10 -5 13 -10 13
-11 0 -12 -10 0 -9 -3 4 -8 17 -6 15 -9 -12 -20 -17 -7 -37 -26 -44 -41 -12
-29 -28 -31 -28 -4 0 8 5 12 10 9 6 -3 10 3 10 13 0 11 7 25 15 32 11 9 13 16
5 24 -7 7 -15 5 -26 -6 -13 -13 -16 -41 -16 -159 1 -79 3 -162 6 -184 5 -31 4
-36 -4 -20 -9 18 -10 17 -5 -5 2 -14 5 -41 5 -60 0 -19 4 -30 8 -23 4 6 8 -69
10 -167 2 -175 2 -178 -19 -173 -11 3 -18 11 -15 19 7 17 -18 36 -38 28 -18
-7 -21 3 -6 26 7 12 12 11 31 -5 12 -11 19 -14 15 -7 -4 6 -4 18 1 25 5 7 10
-5 13 -33 3 -25 5 11 5 80 l1 125 -11 -85 c-9 -76 -12 -85 -31 -85 -11 0 -28
-6 -36 -13 -13 -10 -21 -9 -44 11 -47 38 -84 50 -174 57 -47 4 -94 10 -105 14
-20 8 -20 7 0 -11 21 -18 21 -18 -12 -46 l-32 -28 -7 25 c-6 27 -28 35 -40 15
-4 -8 -9 -7 -15 2 -6 10 -9 8 -9 -8 0 -16 4 -21 16 -16 20 7 33 -13 35 -52 l1
-30 8 30 c7 29 8 29 9 -10 1 -34 8 -47 46 -82 24 -24 51 -43 60 -43 16 0 20
-15 6 -24 -10 -7 -3 -46 9 -46 4 0 13 7 20 15 10 13 9 15 -11 15 -18 0 -20 3
-11 12 9 9 20 3 47 -26 19 -21 32 -43 28 -49 -3 -5 -1 -7 5 -3 12 7 52 -39 52
-61 0 -8 5 -11 11 -7 6 3 10 -1 9 -12 -1 -11 -2 -38 -1 -61 1 -37 4 -43 23
-43 21 0 21 0 2 14 -15 12 -16 17 -7 27 9 9 10 16 2 26 -7 7 -7 13 -3 13 13 0
39 -43 36 -58 -2 -8 4 -12 15 -10 15 3 18 -4 18 -42 0 -34 4 -45 18 -48 10 -2
17 3 17 12 0 9 -6 13 -14 10 -11 -4 -13 0 -9 15 3 12 8 21 12 21 15 0 51 -51
52 -73 0 -21 1 -21 9 -2 7 16 9 12 10 -20 2 -35 3 -37 10 -15 l8 25 1 -24 c1
-14 -10 -34 -26 -49 -18 -15 -21 -22 -10 -19 9 4 17 2 17 -3 0 -15 -17 -12
-63 12 -23 12 -44 22 -47 23 -13 1 -70 40 -70 48 0 5 14 -1 30 -13 17 -12 36
-20 43 -17 7 2 0 10 -15 17 -16 7 -28 17 -28 22 0 12 24 10 38 -4 9 -9 12 -9
12 0 0 13 -6 14 -62 16 -20 1 -34 -2 -31 -6 7 -13 -5 -9 -39 13 -18 12 -25 18
-15 15 11 -3 16 -2 12 4 -3 6 -12 10 -19 10 -8 0 -20 8 -27 17 -12 14 -12 16
1 11 11 -4 16 0 16 12 0 15 -4 16 -19 8 -19 -10 -31 -5 -33 13 -3 22 -5 23
-14 9 -7 -11 -10 -11 -10 -2 0 7 -11 28 -25 46 -14 18 -25 36 -25 40 0 4 -13
21 -29 37 -21 20 -28 35 -24 50 4 14 2 20 -4 16 -6 -4 -16 8 -23 26 -6 17 -15
39 -19 47 -20 39 -40 131 -36 161 4 27 3 30 -4 14 -7 -14 -10 24 -10 120 -1
102 2 136 10 125 8 -11 9 -7 5 18 -3 17 -3 32 -1 32 2 0 9 -15 14 -32 10 -30
10 -29 5 12 -3 25 -8 54 -10 65 -5 17 -3 18 6 5 9 -12 10 -10 6 12 -4 17 -1
32 9 41 8 8 16 26 19 41 6 35 15 48 28 40 7 -5 9 -1 5 9 -6 17 19 77 33 77 4
0 13 12 19 28 12 32 55 82 71 82 6 0 9 4 6 9 -7 11 38 53 47 44 4 -3 7 0 7 7
0 13 49 60 63 60 11 0 9 -18 -3 -23 -6 -3 -5 -4 2 -3 7 2 12 11 12 20 -2 18
111 90 161 102 17 4 33 12 37 18 5 7 39 10 90 9 67 -1 77 0 51 8 -41 12 -43
21 -3 13 19 -4 30 -2 30 5 0 8 35 11 113 10 l112 -2 -92 -9z m-316 -500 c-3
-7 -5 -2 -5 12 0 14 2 19 5 13 2 -7 2 -19 0 -25z m1130 -371 c-2 -23 -3 -1 -3
48 0 50 1 68 3 42 2 -26 2 -67 0 -90z m-1167 -97 c0 -5 -2 -10 -4 -10 -3 0 -8
5 -11 10 -3 6 -1 10 4 10 6 0 11 -4 11 -10z m788 -324 c-8 -15 -12 -16 -19 -5
-13 20 -11 37 2 19 8 -11 9 -6 5 20 -5 34 -5 34 8 10 10 -18 11 -30 4 -44z
m-718 -286 c0 -5 -4 -10 -10 -10 -5 0 -10 5 -10 10 0 6 5 10 10 10 6 0 10 -4
10 -10z m0 -30 c0 -5 -2 -10 -4 -10 -3 0 -8 5 -11 10 -3 6 -1 10 4 10 6 0 11
-4 11 -10z"/>
<path d="M866 1911 c-4 -7 -5 -15 -2 -18 9 -9 19 4 14 18 -4 11 -6 11 -12 0z"/>
<path d="M780 1860 c33 -26 50 -26 20 0 -13 11 -28 20 -34 20 -6 0 0 -9 14
-20z"/>
<path d="M820 1871 c0 -12 48 -27 57 -17 9 8 2 13 -30 21 -17 5 -27 3 -27 -4z"/>
<path d="M1370 1865 c-19 -23 -9 -25 25 -4 26 17 27 19 9 19 -12 0 -27 -7 -34
-15z"/>
<path d="M696 1827 c-34 -32 -48 -67 -25 -67 5 0 7 5 3 11 -3 6 13 28 36 50
23 21 37 39 32 39 -5 0 -26 -15 -46 -33z"/>
<path d="M1435 1850 c-27 -7 -28 -8 -5 -8 14 0 34 3 45 8 25 11 2 11 -40 0z"/>
<path d="M1500 1846 c0 -2 7 -7 16 -10 8 -3 12 -2 9 4 -6 10 -25 14 -25 6z"/>
<path d="M990 1830 c-8 -5 -10 -10 -5 -10 6 0 17 5 25 10 8 5 11 10 5 10 -5 0
-17 -5 -25 -10z"/>
<path d="M1140 1822 c0 -20 32 -31 47 -17 18 19 16 30 -2 15 -12 -10 -18 -10
-30 0 -10 8 -15 9 -15 2z"/>
<path d="M965 1800 c3 -5 11 -10 16 -10 6 0 7 5 4 10 -3 6 -11 10 -16 10 -6 0
-7 -4 -4 -10z"/>
<path d="M700 1780 c0 -5 5 -10 10 -10 6 0 10 5 10 10 0 6 -4 10 -10 10 -5 0
-10 -4 -10 -10z"/>
<path d="M1370 1750 c-13 -9 -13 -10 0 -10 8 0 22 5 30 10 13 9 13 10 0 10 -8
0 -22 -5 -30 -10z"/>
<path d="M1600 1731 c0 -16 33 -51 47 -51 18 0 16 14 -4 32 -28 23 -43 30 -43
19z"/>
<path d="M1365 1720 c-3 -5 -1 -10 4 -10 6 0 11 5 11 10 0 6 -2 10 -4 10 -3 0
-8 -4 -11 -10z"/>
<path d="M525 1709 c-4 -6 -5 -13 -2 -16 7 -7 27 6 27 18 0 12 -17 12 -25 -2z"/>
<path d="M1684 1700 c0 -13 4 -16 10 -10 7 7 7 13 0 20 -6 6 -10 3 -10 -10z"/>
<path d="M1281 1675 c1 -19 18 -51 18 -35 0 8 -4 22 -9 30 -5 8 -9 11 -9 5z"/>
<path d="M1305 1670 c3 -5 8 -10 11 -10 2 0 4 5 4 10 0 6 -5 10 -11 10 -5 0
-7 -4 -4 -10z"/>
<path d="M1680 1662 c0 -5 7 -13 16 -16 10 -4 14 -1 12 6 -5 15 -28 23 -28 10z"/>
<path d="M466 1631 c-4 -7 -5 -15 -2 -18 9 -9 19 4 14 18 -4 11 -6 11 -12 0z"/>
<path d="M1720 1616 c0 -9 7 -16 16 -16 17 0 14 22 -4 28 -7 2 -12 -3 -12 -12z"/>
<path d="M1680 1610 c0 -5 5 -10 11 -10 5 0 7 5 4 10 -3 6 -8 10 -11 10 -2 0
-4 -4 -4 -10z"/>
<path d="M446 1584 c-11 -27 -7 -37 9 -24 16 14 20 40 6 40 -5 0 -12 -7 -15
-16z"/>
<path d="M1252 1580 c0 -14 2 -19 5 -12 2 6 2 18 0 25 -3 6 -5 1 -5 -13z"/>
<path d="M1800 1552 c0 -5 5 -13 12 -20 16 -16 29 -15 22 2 -6 16 -34 30 -34
18z"/>
<path d="M392 1528 c-6 -8 -6 -21 -1 -33 9 -18 9 -18 5 3 -3 16 1 22 15 22 10
0 19 5 19 10 0 14 -26 12 -38 -2z"/>
<path d="M1242 1495 c0 -16 2 -22 5 -12 2 9 2 23 0 30 -3 6 -5 -1 -5 -18z"/>
<path d="M1258 1457 c-3 -19 -2 -25 4 -19 6 6 8 18 6 28 -3 14 -5 12 -10 -9z"/>
<path d="M376 1453 c-6 -14 -5 -15 5 -6 7 7 10 15 7 18 -3 3 -9 -2 -12 -12z"/>
<path d="M369 1417 c-27 -23 -45 -57 -30 -57 5 0 14 7 21 15 16 20 28 19 33
-2 2 -10 4 1 3 25 0 23 0 42 -1 42 0 -1 -12 -11 -26 -23z"/>
<path d="M1847 1406 c-4 -10 -7 -25 -6 -34 0 -11 4 -9 10 7 5 13 8 29 6 35 -2
5 -6 2 -10 -8z"/>
<path d="M1860 1370 c0 -5 5 -10 11 -10 5 0 7 5 4 10 -3 6 -8 10 -11 10 -2 0
-4 -4 -4 -10z"/>
<path d="M1671 1314 c0 -11 3 -14 6 -6 3 7 2 16 -1 19 -3 4 -6 -2 -5 -13z"/>
<path d="M302 1205 c0 -16 2 -22 5 -12 2 9 2 23 0 30 -3 6 -5 -1 -5 -18z"/>
<path d="M1670 1179 c0 -24 -4 -38 -10 -34 -5 3 -10 -1 -10 -9 0 -9 7 -16 15
-16 11 0 15 12 15 50 0 28 -2 50 -5 50 -3 0 -5 -18 -5 -41z"/>
<path d="M1626 1178 c-3 -13 -5 -32 -5 -43 1 -11 5 -2 10 19 10 42 6 62 -5 24z"/>
<path d="M530 1110 c-38 -6 -23 -7 49 -4 57 2 106 6 109 9 7 7 -90 3 -158 -5z"/>
<path d="M695 1100 c-3 -5 -18 -10 -33 -11 l-27 0 24 -10 c29 -11 61 -3 61 17
0 16 -16 19 -25 4z"/>
<path d="M711 1044 c0 -11 3 -14 6 -6 3 7 2 16 -1 19 -3 4 -6 -2 -5 -13z"/>
<path d="M1588 1003 c-3 -16 -2 -50 2 -78 7 -48 7 -47 9 28 1 80 -3 97 -11 50z"/>
<path d="M308 983 c-3 -21 -1 -47 3 -58 5 -14 8 -3 10 35 l1 55 9 -54 c7 -41
6 -57 -3 -62 -9 -6 -8 -13 6 -28 11 -12 19 -34 20 -50 1 -16 4 -27 8 -25 11 7
30 -36 25 -57 -3 -11 -1 -16 5 -13 6 4 8 21 5 38 -5 29 -2 34 31 48 32 14 35
17 18 24 -13 5 -21 3 -24 -4 -2 -7 -10 -12 -18 -12 -8 0 -14 -4 -14 -10 0 -5
-4 -10 -10 -10 -15 0 -12 33 6 58 17 25 11 43 -7 25 -17 -17 -43 -4 -28 13 9
11 9 21 0 40 -6 14 -11 38 -11 54 0 45 -27 38 -32 -7z"/>
<path d="M1592 750 c0 -19 2 -27 5 -17 2 9 2 25 0 35 -3 9 -5 1 -5 -18z"/>
<path d="M510 751 c0 -5 6 -14 14 -20 16 -13 32 2 21 19 -8 12 -35 13 -35 1z"/>
<path d="M473 724 c-15 -16 -16 -24 -4 -24 8 0 24 30 19 35 -2 2 -9 -3 -15
-11z"/>
<path d="M570 720 c0 -5 5 -10 10 -10 6 0 10 5 10 10 0 6 -4 10 -10 10 -5 0
-10 -4 -10 -10z"/>
<path d="M1787 704 c6 -18 19 -18 26 -1 3 7 -3 13 -14 14 -12 1 -16 -3 -12
-13z"/>
<path d="M1760 695 c0 -24 16 -51 22 -39 3 5 -1 20 -8 34 -12 22 -14 22 -14 5z"/>
<path d="M577 670 c-10 -16 -16 -30 -13 -30 2 0 14 14 26 30 12 17 18 30 13
30 -5 0 -17 -13 -26 -30z"/>
<path d="M457 647 c-2 -6 5 -21 16 -32 20 -20 20 -20 9 1 -6 12 -9 24 -6 27 3
3 1 8 -4 11 -6 3 -12 0 -15 -7z"/>
<path d="M1723 627 c-32 -11 -37 -21 -34 -59 2 -12 -7 -18 -30 -20 -37 -3 -56
-27 -45 -54 8 -18 8 -18 16 1 10 26 36 48 48 41 5 -3 16 12 25 34 11 28 21 40
35 40 11 0 22 7 26 15 6 17 5 17 -41 2z"/>
<path d="M1475 500 c-3 -5 -1 -10 4 -10 6 0 11 5 11 10 0 6 -2 10 -4 10 -3 0
-8 -4 -11 -10z"/>
<path d="M780 395 c-17 -10 -20 -14 -9 -15 9 0 22 7 29 15 15 18 12 18 -20 0z"/>
<path d="M1445 390 c3 -5 11 -10 16 -10 6 0 7 5 4 10 -3 6 -11 10 -16 10 -6 0
-7 -4 -4 -10z"/>
<path d="M1030 853 c90 -66 120 -115 130 -213 l6 -65 8 56 c10 73 -6 130 -50
179 -33 36 -47 44 -99 56 -17 4 -16 2 5 -13z"/>
</g>
</svg>
