<?xml version="1.0" standalone="no"?>
<!DOCTYPE svg PUBLIC "-//W3C//DTD SVG 20010904//EN"
 "http://www.w3.org/TR/2001/REC-SVG-20010904/DTD/svg10.dtd">
<svg version="1.0" xmlns="http://www.w3.org/2000/svg"
 width="400.000000pt" height="398.000000pt" viewBox="0 0 400.000000 398.000000"
 preserveAspectRatio="xMidYMid meet">
<metadata>
Created by potrace 1.16, written by Peter Selinger 2001-2019
</metadata>
<g transform="translate(0.000000,398.000000) scale(0.100000,-0.100000)"
fill="#000000" stroke="none">
<path d="M1815 3970 c-22 -5 -80 -14 -130 -20 -90 -11 -139 -22 -270 -62 -272
-81 -518 -217 -726 -400 -52 -45 -99 -87 -104 -93 -31 -32 -163 -185 -180
-209 -11 -16 -30 -40 -41 -55 -39 -47 -136 -220 -187 -331 -77 -167 -136 -387
-163 -605 -17 -131 -5 -447 20 -550 3 -11 15 -63 26 -115 42 -184 135 -414
224 -553 20 -32 36 -60 36 -64 0 -12 112 -155 185 -237 252 -284 553 -477 910
-584 131 -40 180 -51 270 -62 50 -6 112 -15 138 -21 63 -12 272 -12 334 0 26
6 86 15 133 21 145 19 284 57 445 123 137 55 201 89 333 175 255 166 484 400
613 627 41 72 136 260 142 280 3 11 18 54 33 95 85 236 108 375 108 660 1 177
-3 245 -17 320 -49 259 -138 502 -244 672 -13 21 -23 40 -23 44 0 7 -101 153
-126 182 -170 202 -281 306 -447 419 -126 87 -203 129 -332 183 -55 23 -109
45 -120 50 -62 28 -255 75 -365 90 -47 6 -107 15 -133 21 -57 11 -285 10 -342
-1z m445 -161 c279 -45 487 -124 745 -282 24 -15 130 -93 170 -126 17 -14 77
-73 136 -131 239 -239 391 -524 488 -915 24 -95 40 -360 30 -495 -20 -261
-101 -544 -209 -730 -87 -150 -126 -210 -191 -290 -138 -171 -312 -324 -484
-425 -87 -51 -234 -125 -250 -125 -4 0 -21 -7 -38 -15 -81 -37 -212 -73 -372
-102 -120 -21 -428 -24 -545 -4 -381 63 -651 186 -940 426 -296 247 -512 612
-603 1020 -49 221 -45 574 8 785 80 316 209 571 398 785 266 301 562 485 941
584 96 26 156 36 326 55 57 7 319 -3 390 -15z"/>
<path d="M1760 3628 c-354 -51 -675 -212 -930 -468 -137 -137 -228 -263 -309
-425 -103 -207 -150 -374 -171 -613 -20 -223 4 -410 81 -645 134 -409 434
-756 819 -948 63 -32 158 -71 210 -88 52 -17 108 -35 124 -41 16 -5 32 -8 35
-6 7 5 -3 301 -14 398 l-7 67 -137 138 c-79 80 -179 195 -238 273 -135 181
-192 241 -320 340 -123 96 -123 96 -123 131 0 19 11 35 37 55 55 42 149 46
228 10 56 -25 166 -97 280 -180 77 -57 151 -82 199 -66 57 18 61 51 60 450 -1
190 -7 410 -13 490 -20 236 -19 339 2 382 24 50 92 90 144 86 38 -3 38 -4 45
-53 3 -27 18 -140 33 -250 14 -110 30 -231 35 -270 18 -137 21 -161 31 -231
l11 -70 -32 -33 c-38 -37 -34 -49 8 -27 16 8 52 18 80 22 58 7 67 19 22 29
-34 7 -36 13 -49 120 -11 87 -57 443 -71 540 -4 33 -13 101 -19 150 -7 50 -14
98 -17 108 -8 25 46 74 89 82 84 16 121 -15 135 -111 23 -154 64 -444 82 -584
4 -36 16 -117 25 -180 26 -182 54 -186 124 -19 59 141 55 131 96 244 20 55 41
109 45 120 5 11 20 54 34 95 85 254 99 279 161 280 41 0 104 -44 121 -85 11
-26 11 -46 3 -96 -9 -51 -81 -257 -139 -394 -8 -20 -76 -192 -90 -230 -28 -76
-46 -100 -80 -106 -19 -4 -27 -7 -16 -8 10 0 41 -17 68 -37 55 -39 68 -39 43
-1 -17 27 -16 30 60 212 6 17 22 57 35 90 12 33 28 74 35 90 7 17 27 68 45
115 61 163 66 168 129 135 41 -21 57 -66 43 -124 -6 -25 -21 -89 -32 -141 -53
-237 -71 -317 -80 -350 -25 -94 -51 -295 -56 -432 -9 -301 -35 -393 -158 -558
-87 -117 -91 -135 -81 -400 l7 -197 92 32 c237 83 427 204 618 392 248 245
420 592 467 938 15 109 13 339 -4 460 -64 465 -330 879 -730 1141 -281 183
-570 266 -915 263 -80 -1 -174 -6 -210 -11z m395 -157 c23 -7 9 -9 -64 -10
-87 -1 -119 -11 -54 -17 16 -1 30 -2 32 -3 3 -1 -4 -8 -15 -16 -18 -15 -17
-15 16 -13 19 1 42 -2 49 -7 11 -6 13 -3 9 13 -7 26 1 29 82 30 54 1 162 -14
123 -17 -7 -1 -13 -6 -13 -12 0 -8 18 -9 58 -4 46 5 55 4 45 -6 -20 -20 -16
-49 7 -49 13 0 20 7 20 20 0 13 7 20 20 20 11 0 20 -4 20 -10 0 -5 12 -13 28
-16 48 -12 120 -45 126 -59 4 -10 -10 -15 -52 -20 -78 -9 -91 -13 -72 -25 22
-14 57 -12 73 4 8 8 36 17 63 21 45 7 47 6 29 -8 -22 -17 -20 -21 13 -31 13
-5 22 -3 22 3 0 6 -5 11 -12 11 -6 0 -9 2 -6 5 2 3 20 0 38 -6 27 -10 30 -13
16 -21 -27 -15 -19 -30 14 -23 17 4 30 4 30 0 0 -11 -44 -44 -57 -45 -7 0 -13
-7 -13 -15 0 -26 36 -16 65 19 16 19 34 32 42 29 18 -7 16 -30 -4 -42 -10 -5
-15 -13 -10 -17 4 -4 15 1 26 10 18 17 21 16 55 -6 24 -15 34 -28 30 -39 -5
-19 20 -49 42 -49 8 0 14 -8 14 -17 0 -13 3 -15 8 -5 6 9 15 7 35 -11 21 -18
25 -25 15 -35 -9 -9 -9 -12 1 -12 14 0 111 -97 111 -111 0 -5 -7 -9 -15 -9
-18 0 -21 -57 -3 -94 9 -21 8 -29 -5 -44 -24 -26 -22 -30 23 -30 39 -1 51 10
29 24 -7 4 -9 21 -6 42 4 19 3 32 0 28 -7 -7 -43 22 -43 34 0 12 28 20 45 14
8 -4 15 -12 15 -20 0 -7 9 -18 20 -24 11 -6 20 -15 20 -21 0 -5 11 -27 25 -47
14 -20 25 -51 25 -69 0 -25 4 -31 15 -27 19 8 20 -18 3 -46 -10 -15 -10 -23
-2 -28 6 -4 15 -18 20 -32 8 -24 8 -24 14 10 l5 35 19 -50 c10 -27 24 -75 31
-105 8 -30 20 -74 27 -98 10 -36 10 -44 -2 -52 -12 -8 -12 -14 -1 -45 8 -23
11 -57 8 -89 -3 -28 -2 -71 2 -96 l8 -45 2 60 c1 33 6 67 11 75 7 10 10 -34
10 -133 0 -96 -4 -146 -10 -142 -5 3 -10 31 -10 62 0 31 -2 54 -4 52 -4 -4
-24 -174 -30 -244 0 -11 -8 -20 -16 -20 -19 0 -20 -3 -20 -75 0 -59 19 -87 21
-32 1 20 3 22 6 6 4 -23 -33 -130 -49 -140 -14 -9 -25 10 -32 57 -3 21 -11 41
-16 44 -17 11 -11 -51 10 -105 l20 -51 -30 -64 c-16 -35 -30 -69 -30 -74 0 -6
-6 -14 -12 -18 -13 -8 -24 -23 -58 -83 -29 -51 -68 -95 -77 -87 -4 5 -2 16 4
27 10 14 9 19 -2 24 -8 3 -15 2 -15 -3 0 -11 -47 -31 -75 -31 -33 0 -47 -48
-29 -100 4 -10 10 -4 20 20 8 19 22 42 31 52 19 21 51 24 59 5 7 -19 -70 -107
-161 -184 -28 -23 -66 -55 -86 -72 -20 -17 -42 -31 -48 -31 -6 0 -11 -4 -11
-9 0 -17 -72 -53 -83 -42 -17 17 -30 13 -23 -6 9 -22 -13 -34 -37 -21 -22 12
-35 2 -19 -14 9 -9 5 -16 -16 -28 -15 -9 -39 -20 -54 -23 l-28 -7 0 111 c0 91
2 110 14 106 9 -4 16 3 20 18 8 30 58 114 69 115 4 0 15 -16 23 -35 8 -20 19
-33 24 -30 14 9 12 33 -4 42 -18 10 -31 69 -17 78 6 3 11 -1 11 -9 0 -9 4 -16
9 -16 4 0 9 23 10 51 0 31 7 56 16 66 15 14 15 13 9 -12 -6 -22 -4 -26 7 -19
10 6 10 2 -2 -17 -16 -23 -16 -25 1 -25 10 0 16 4 14 8 -3 4 0 8 5 8 6 0 11 7
11 16 0 8 5 12 10 9 6 -3 10 2 11 12 0 14 2 14 9 -4 5 -13 14 -23 20 -23 17 0
23 29 10 45 -7 8 -10 21 -7 29 8 20 -13 98 -32 119 -14 17 -14 21 2 49 19 33
23 94 6 100 -14 5 5 388 21 418 5 10 10 35 10 54 0 20 4 44 9 54 9 18 30 98
39 145 2 15 9 27 14 27 6 0 8 -13 4 -33 -17 -93 -18 -107 -7 -107 10 0 16 51
14 128 0 31 11 44 19 20 2 -6 10 -8 16 -4 9 5 9 13 2 26 -5 10 -10 29 -10 42
0 13 -5 29 -11 35 -8 8 -8 24 1 60 7 26 14 67 17 91 6 50 20 55 26 10 2 -19 4
-7 5 28 1 33 5 64 10 68 11 12 9 60 -4 71 -6 6 -16 25 -22 42 -12 36 0 52 23
33 11 -9 15 -9 15 -1 0 6 -4 11 -10 11 -5 0 -10 7 -10 15 0 18 -5 18 -30 5
-13 -7 -19 -6 -24 6 -3 9 -4 20 0 25 3 5 -11 9 -31 9 -22 0 -34 4 -30 10 4 6
10 8 15 5 4 -3 6 4 3 16 -5 18 -7 19 -15 6 -5 -9 -15 -14 -22 -11 -15 6 -12
33 7 72 8 16 8 25 1 30 -6 4 -14 21 -18 37 -4 17 -21 49 -37 73 -23 32 -27 42
-15 42 22 0 20 27 -1 33 -15 4 -14 6 5 12 l24 8 -30 26 c-17 14 -35 38 -41 54
-11 30 -35 38 -29 10 4 -23 -33 -43 -78 -43 -38 0 -45 16 -12 29 14 5 17 10
10 15 -14 9 -62 -22 -62 -40 0 -7 12 -20 28 -28 l27 -15 -38 -1 c-101 -1 -206
-102 -207 -199 0 -14 -9 -44 -20 -66 -17 -34 -20 -36 -16 -13 1 15 0 25 -5 23
-16 -10 -18 12 -3 39 18 36 18 47 -2 21 -12 -17 -18 -18 -34 -7 -19 11 -19 11
-8 -7 9 -15 8 -24 -5 -45 -9 -14 -17 -42 -17 -63 l1 -38 14 40 c8 22 15 41 15
43 0 1 5 2 11 2 7 0 9 -11 5 -32 -4 -18 -11 -58 -16 -88 -11 -75 -24 -119 -45
-160 -10 -19 -21 -46 -25 -60 -5 -17 -9 1 -14 60 -4 47 -12 102 -17 124 -6 21
-12 59 -14 85 -2 25 -6 67 -10 94 -7 43 -6 47 12 47 17 0 19 5 15 27 -6 30
-31 84 -33 68 0 -5 -7 10 -15 35 -8 25 -12 55 -9 68 3 12 1 22 -5 22 -20 0
-23 31 -5 44 10 7 15 18 11 25 -6 9 -13 6 -27 -10 l-19 -22 -9 26 c-6 14 -19
28 -30 32 -10 3 -22 12 -25 20 -4 12 -26 15 -95 15 -78 0 -98 -4 -146 -27 -30
-15 -55 -32 -55 -38 -1 -21 -38 -55 -54 -49 -9 3 -16 10 -16 15 0 5 -9 9 -19
9 -11 0 -21 5 -23 11 -2 6 -17 9 -33 6 -28 -4 -29 -5 -7 -12 12 -4 22 -11 22
-16 0 -5 -10 -9 -22 -9 -20 -1 -19 -2 7 -14 l30 -14 -40 -17 c-53 -23 -105
-74 -105 -103 0 -35 -24 -21 -28 16 -4 38 -18 42 -24 8 -3 -15 0 -27 8 -30 17
-6 19 -82 3 -92 -6 -4 -8 -17 -4 -33 11 -43 14 -151 4 -157 -16 -9 -11 -94 6
-100 13 -5 14 -31 10 -171 -4 -126 -2 -169 7 -181 10 -11 14 -81 16 -267 l2
-252 -25 4 c-32 7 -51 29 -31 36 9 4 18 2 21 -4 14 -22 20 3 15 63 l-4 63 -6
-58 -5 -59 -37 26 c-21 14 -38 21 -38 16 0 -6 4 -10 9 -10 5 0 11 -7 14 -15 5
-11 0 -11 -29 3 -30 15 -34 21 -30 45 6 28 -2 35 -21 16 -12 -12 -90 32 -99
56 -3 8 -21 17 -40 21 -19 3 -34 10 -34 15 0 5 -6 9 -12 9 -7 0 -26 7 -42 15
-39 21 -203 31 -246 17 -28 -10 -36 -9 -57 8 -27 21 -69 28 -57 9 3 -6 20 -19
36 -29 l30 -18 -40 -22 c-22 -12 -46 -33 -53 -47 -12 -23 -36 -27 -31 -4 1 6
-2 11 -8 11 -5 0 -10 8 -10 18 0 14 -2 15 -10 2 -8 -12 -10 -11 -10 8 0 28
-11 28 -28 1 -11 -18 -11 -23 5 -34 10 -7 15 -17 11 -21 -4 -4 -3 -13 3 -20 5
-7 10 -31 11 -53 0 -23 4 -41 9 -41 5 0 9 21 9 48 0 34 3 43 10 32 5 -8 10
-41 10 -74 l0 -59 77 -73 c51 -50 84 -74 100 -74 30 0 40 -25 18 -46 -9 -9
-14 -23 -11 -31 3 -8 6 -21 6 -29 0 -20 30 -18 46 4 20 25 17 32 -13 32 -25 0
-26 1 -11 16 15 15 19 15 45 -5 15 -13 28 -30 28 -39 0 -10 15 -23 33 -31 24
-11 32 -21 30 -35 -2 -15 6 -26 26 -37 17 -9 33 -22 37 -30 4 -8 15 -31 25
-51 10 -20 22 -35 26 -32 4 3 11 -2 15 -11 3 -10 0 -21 -7 -25 -8 -5 -9 -13
-4 -21 5 -8 9 -40 9 -72 1 -62 11 -77 53 -77 12 0 22 5 22 10 0 6 -7 10 -15
10 -8 0 -15 5 -15 10 0 6 -7 10 -15 10 -8 0 -15 9 -15 20 0 11 7 20 15 20 8 0
15 9 15 20 0 11 -7 20 -15 20 -8 0 -15 7 -15 15 0 8 7 15 15 15 8 0 15 -5 15
-11 0 -6 14 -22 30 -36 30 -25 40 -53 19 -53 -6 0 -9 -6 -6 -12 2 -7 16 -13
32 -13 34 0 58 -31 35 -45 -21 -13 -22 -74 -1 -99 22 -26 40 -27 57 -3 18 23
17 30 -5 41 -16 9 -18 8 -14 -11 4 -15 2 -19 -8 -16 -8 3 -14 10 -13 16 1 7 2
23 3 37 2 38 25 30 70 -23 31 -35 41 -56 41 -81 0 -36 14 -33 22 4 4 18 6 17
16 -7 6 -16 16 -28 22 -28 5 0 10 -10 10 -22 -1 -22 -1 -22 -15 -4 -13 17 -15
17 -21 3 -9 -25 3 -48 21 -41 9 4 15 1 15 -9 0 -8 -9 -17 -21 -20 -12 -3 -18
-10 -14 -16 3 -6 -5 -15 -19 -21 -33 -12 -34 -29 -2 -23 27 6 45 -14 21 -23
-18 -7 -65 10 -115 43 -20 12 -50 26 -68 29 -18 4 -38 14 -45 23 -14 18 -41
36 -76 51 -19 9 -22 13 -12 23 10 9 15 8 25 -5 7 -10 20 -18 27 -18 8 0 22 -9
32 -20 9 -11 27 -20 38 -20 21 0 22 1 4 20 -10 11 -24 20 -31 20 -15 0 -44 27
-44 41 0 18 49 9 60 -11 13 -23 40 -27 40 -5 0 8 -9 15 -19 15 -10 0 -21 7
-25 15 -6 17 -56 21 -56 5 0 -5 -13 -10 -28 -10 -15 0 -33 -5 -40 -12 -9 -9
-19 -7 -44 12 -18 13 -37 30 -41 37 -5 7 -12 11 -18 8 -5 -4 -9 -1 -9 4 0 6 4
11 10 11 5 0 7 7 4 15 -5 12 -10 13 -20 4 -10 -8 -19 -5 -36 11 -22 20 -22 22
-5 34 9 7 17 18 17 24 0 6 6 12 13 15 6 2 8 8 4 13 -4 5 -11 4 -15 -1 -4 -6
-20 -17 -36 -25 -25 -13 -29 -13 -41 3 -7 9 -11 29 -9 43 1 14 0 23 -3 20 -19
-19 -133 94 -133 132 0 8 -18 32 -41 53 -32 30 -39 42 -34 60 5 14 4 19 -4 15
-7 -5 -11 4 -11 26 0 24 -3 29 -9 19 -8 -12 -12 -10 -21 11 -10 21 -9 37 9 89
12 35 31 76 42 92 31 43 7 65 -30 28 -19 -19 -20 -19 -37 0 -16 18 -16 20 1
39 15 17 16 24 5 50 -7 16 -16 30 -20 30 -4 0 -8 28 -8 63 0 55 -2 62 -18 59
-11 -2 -20 -5 -21 -6 -9 -9 -21 -112 -16 -136 8 -44 23 -47 23 -4 0 31 2 35
15 24 19 -16 19 -66 0 -74 -23 -9 -18 -37 14 -65 32 -30 48 -102 26 -121 -10
-8 -14 -2 -19 25 -4 19 -10 35 -14 35 -7 0 -18 30 -57 160 -11 36 -15 73 -11
110 3 31 2 44 -3 30 l-7 -25 -7 25 c-9 32 -9 387 0 431 5 29 7 30 15 14 5 -13
7 -1 4 35 -2 30 -2 48 1 40 3 -8 10 -18 15 -21 6 -4 10 -23 11 -43 1 -20 5
-36 9 -36 14 0 12 67 -2 85 -4 6 -10 36 -13 68 -4 46 -3 57 9 57 10 0 13 7 8
24 -7 29 11 66 31 66 9 0 16 11 17 28 5 84 16 115 40 109 18 -5 19 -2 14 27
-5 23 -2 37 9 46 8 7 15 18 15 25 0 7 16 30 35 49 19 20 35 44 35 54 0 18 52
88 82 110 10 7 18 20 18 28 0 11 7 13 28 8 23 -6 25 -5 15 8 -11 12 -6 22 27
56 27 30 44 40 56 35 14 -5 16 -2 12 15 -5 17 -1 23 18 28 13 3 24 10 24 16 0
12 52 57 68 58 6 0 12 -7 12 -15 0 -9 8 -14 23 -12 17 2 23 -4 25 -26 5 -37
26 -29 30 11 3 30 2 32 -32 32 -33 0 -62 20 -40 27 6 2 35 19 65 39 30 19 77
46 104 60 28 15 61 32 75 40 14 8 36 14 50 14 14 0 39 9 55 20 54 36 139 55
159 34 14 -14 40 -17 106 -14 l45 2 -65 17 c-68 18 -70 36 -1 25 26 -4 46 -2
59 8 24 16 329 24 377 9z m553 -402 c2 -11 -7 -18 -29 -23 -41 -8 -45 -3 -22
23 20 24 46 24 51 0z m-1261 -496 c-3 -10 -5 -2 -5 17 0 19 2 27 5 18 2 -10 2
-26 0 -35z m-857 -834 c0 -28 -4 -39 -12 -36 -7 2 -12 13 -11 23 2 10 4 29 5
41 4 36 18 14 18 -28z m2830 -63 c0 -36 -15 -40 -18 -5 -1 16 2 29 8 29 5 0
10 -11 10 -24z m-640 -415 c0 -11 5 -23 10 -26 14 -8 13 -46 -2 -78 -16 -34
-26 -34 -38 -1 -13 32 -13 44 0 44 6 0 10 -7 10 -16 0 -8 5 -12 10 -9 6 3 10
17 10 30 0 13 -4 27 -10 30 -5 3 -10 15 -10 26 0 10 5 19 10 19 6 0 10 -9 10
-19z m-1610 -101 c0 -5 -2 -10 -4 -10 -3 0 -8 5 -11 10 -3 6 -1 10 4 10 6 0
11 -4 11 -10z m-290 -146 c0 -8 -4 -12 -10 -9 -5 3 -10 10 -10 16 0 5 5 9 10
9 6 0 10 -7 10 -16z m620 -359 c0 -9 -6 -12 -15 -9 -8 4 -12 10 -9 15 8 14 24
10 24 -6z m5 -55 c-5 -8 -11 -8 -17 -2 -6 6 -7 16 -3 22 5 8 11 8 17 2 6 -6 7
-16 3 -22z"/>
<path d="M1858 3444 c-19 -19 -4 -25 47 -21 54 4 89 17 49 17 -10 0 -35 3 -54
6 -19 3 -38 2 -42 -2z"/>
<path d="M1537 3403 c-15 -15 -7 -43 13 -43 15 0 20 7 20 25 0 24 -18 34 -33
18z"/>
<path d="M2442 3322 c-33 -36 -20 -62 13 -26 14 15 25 24 25 20 0 -4 9 -2 21
4 24 13 19 22 -14 25 -14 2 -31 -7 -45 -23z"/>
<path d="M1456 3331 c-13 -20 88 -61 106 -43 14 14 1 32 -22 32 -10 0 -22 5
-25 10 -8 12 -52 13 -59 1z"/>
<path d="M1378 3318 c12 -6 22 -17 22 -24 0 -7 -10 -14 -22 -16 -13 -2 1 -4
30 -5 51 -1 53 0 35 17 -25 22 -58 40 -75 39 -7 0 -3 -5 10 -11z"/>
<path d="M1308 3293 c7 -3 16 -2 19 1 4 3 -2 6 -13 5 -11 0 -14 -3 -6 -6z"/>
<path d="M1258 3264 c-30 -16 -57 -54 -38 -54 23 0 68 30 73 50 6 24 1 24 -35
4z"/>
<path d="M1758 3256 c-22 -16 -23 -26 -3 -26 8 0 15 4 15 8 0 5 10 14 23 20
20 10 21 11 2 11 -11 0 -28 -6 -37 -13z"/>
<path d="M1825 3240 c-3 -5 3 -10 15 -10 12 0 18 5 15 10 -3 6 -10 10 -15 10
-5 0 -12 -4 -15 -10z"/>
<path d="M2101 3233 c-8 -15 -13 -16 -30 -5 -51 31 -56 -3 -6 -35 33 -21 35
-21 35 -4 0 10 9 21 20 24 23 6 27 37 5 37 -7 0 -18 -8 -24 -17z"/>
<path d="M1700 3210 c0 -11 33 -30 51 -30 8 0 5 7 -6 20 -19 21 -45 27 -45 10z"/>
<path d="M1246 3171 c-3 -5 1 -15 10 -22 13 -10 17 -10 25 2 5 8 9 17 9 22 0
10 -38 9 -44 -2z"/>
<path d="M1085 3150 c-3 -5 1 -10 9 -10 9 0 16 5 16 10 0 6 -4 10 -9 10 -6 0
-13 -4 -16 -10z"/>
<path d="M2640 3129 c0 -5 5 -7 10 -4 6 3 10 8 10 11 0 2 -4 4 -10 4 -5 0 -10
-5 -10 -11z"/>
<path d="M2443 3116 c-13 -6 -23 -17 -23 -24 0 -7 4 -11 9 -7 5 3 13 0 16 -6
4 -6 -2 -13 -14 -16 -24 -6 -29 -33 -5 -33 9 0 21 13 27 29 6 16 21 35 34 42
44 24 2 38 -44 15z"/>
<path d="M1449 3061 c-12 -41 -7 -71 11 -71 5 0 10 9 10 19 0 11 11 33 25 49
32 38 31 42 -5 42 -25 0 -31 -5 -41 -39z"/>
<path d="M2840 3061 c0 -10 9 -21 20 -24 11 -3 24 -17 30 -31 9 -24 38 -35 53
-20 10 10 -22 64 -37 64 -7 0 -19 7 -26 15 -17 21 -40 19 -40 -4z"/>
<path d="M937 3039 c-21 -12 -14 -29 13 -29 15 0 30 18 30 36 0 7 -25 4 -43
-7z"/>
<path d="M2277 2983 c-4 -6 2 -31 12 -55 17 -36 20 -39 20 -17 1 14 -3 29 -8
35 -5 5 -11 18 -13 29 -2 13 -6 16 -11 8z"/>
<path d="M2320 2978 c0 -7 4 -19 9 -26 7 -11 10 -10 15 3 3 9 4 21 0 26 -8 13
-24 11 -24 -3z"/>
<path d="M2990 2955 c0 -15 35 -38 51 -33 13 4 -19 48 -37 48 -8 0 -14 -7 -14
-15z"/>
<path d="M2820 2951 c0 -6 5 -13 10 -16 6 -3 10 1 10 9 0 9 -4 16 -10 16 -5 0
-10 -4 -10 -9z"/>
<path d="M842 2908 c-17 -17 -15 -48 3 -48 10 0 15 10 15 30 0 34 -1 35 -18
18z"/>
<path d="M3064 2878 c3 -13 6 -26 6 -30 0 -12 28 -9 35 3 7 11 -22 49 -38 49
-5 0 -7 -10 -3 -22z"/>
<path d="M2980 2856 c0 -10 9 -16 21 -16 24 0 21 23 -4 28 -10 2 -17 -3 -17
-12z"/>
<path d="M800 2814 c-6 -15 -10 -34 -8 -41 5 -23 50 15 46 40 -5 31 -27 32
-38 1z"/>
<path d="M2214 2824 c3 -9 6 -21 6 -27 0 -16 20 14 20 31 0 6 -7 12 -16 12
-11 0 -14 -5 -10 -16z"/>
<path d="M3212 2753 c23 -49 32 -63 39 -63 13 0 22 22 12 29 -5 3 -12 14 -16
24 -3 9 -14 17 -23 17 -8 0 -14 -3 -12 -7z"/>
<path d="M703 2715 c-13 -12 -23 -26 -23 -31 0 -4 5 -3 12 4 7 7 24 12 39 12
27 0 54 21 42 33 -13 13 -48 4 -70 -18z"/>
<path d="M825 2710 c-3 -5 3 -10 14 -10 12 0 21 5 21 10 0 6 -6 10 -14 10 -8
0 -18 -4 -21 -10z"/>
<path d="M2201 2683 c1 -10 5 -29 9 -43 7 -21 8 -22 9 -5 1 11 4 30 7 43 5 16
2 22 -10 22 -9 0 -16 -8 -15 -17z"/>
<path d="M702 2650 c0 -14 2 -19 5 -12 2 6 2 18 0 25 -3 6 -5 1 -5 -13z"/>
<path d="M2240 2601 c0 -16 -3 -38 -6 -48 -6 -16 -5 -16 9 2 18 23 22 61 7 70
-6 4 -10 -6 -10 -24z"/>
<path d="M673 2593 c-9 -19 -10 -30 -2 -40 15 -17 -2 -39 -36 -47 -18 -5 -25
-13 -25 -29 0 -13 -5 -28 -11 -34 -6 -6 -8 -16 -5 -22 9 -14 34 -3 41 20 9 26
55 26 55 0 0 -19 19 -41 21 -24 4 46 3 63 -4 63 -5 0 -7 18 -3 40 5 33 4 38
-10 33 -13 -5 -14 0 -9 31 8 43 5 46 -12 9z"/>
<path d="M3280 2495 c-6 -14 -10 -41 -10 -58 l1 -32 19 39 c22 44 25 62 10 71
-6 3 -15 -6 -20 -20z"/>
<path d="M1421 2444 c0 -11 3 -14 6 -6 3 7 2 16 -1 19 -3 4 -6 -2 -5 -13z"/>
<path d="M3310 2436 c0 -9 5 -16 10 -16 6 0 10 4 10 9 0 6 -4 13 -10 16 -5 3
-10 -1 -10 -9z"/>
<path d="M2970 2281 c0 -6 5 -13 10 -16 6 -3 10 1 10 9 0 9 -4 16 -10 16 -5 0
-10 -4 -10 -9z"/>
<path d="M2930 2261 c0 -6 5 -13 10 -16 6 -3 10 1 10 9 0 9 -4 16 -10 16 -5 0
-10 -4 -10 -9z"/>
<path d="M2961 2204 c0 -11 3 -14 6 -6 3 7 2 16 -1 19 -3 4 -6 -2 -5 -13z"/>
<path d="M532 2148 c2 -24 9 -43 17 -46 10 -3 12 0 8 12 -4 10 -7 31 -7 47 0
16 -5 29 -11 29 -6 0 -9 -16 -7 -42z"/>
<path d="M2970 2105 c0 -51 -3 -65 -15 -65 -10 0 -15 -10 -15 -29 0 -25 3 -28
25 -23 24 4 25 6 25 93 0 53 -4 89 -10 89 -6 0 -10 -28 -10 -65z"/>
<path d="M1436 2121 c-4 -6 -6 -25 -6 -43 1 -33 -7 -152 -15 -216 -3 -27 -1
-31 9 -23 9 8 16 54 21 147 7 129 5 158 -9 135z"/>
<path d="M795 1990 c-3 -5 1 -10 10 -10 9 0 13 5 10 10 -3 6 -8 10 -10 10 -2
0 -7 -4 -10 -10z"/>
<path d="M1040 1989 c0 -5 8 -9 18 -9 10 0 27 -7 38 -15 25 -19 44 -19 44 0 0
11 11 15 42 15 72 0 35 10 -55 14 -52 3 -87 1 -87 -5z"/>
<path d="M930 1970 l-75 -6 83 -2 c49 -1 82 2 82 8 0 6 -3 9 -7 8 -5 -1 -42
-4 -83 -8z"/>
<path d="M1231 1950 c-13 -11 -32 -20 -43 -20 -17 0 -18 -3 -8 -15 14 -17 60
-21 60 -5 0 6 9 10 20 10 15 0 20 7 20 25 0 30 -16 31 -49 5z"/>
<path d="M539 1895 c-3 -17 -2 -41 2 -55 7 -24 7 -24 8 -2 1 12 6 22 12 22 8
0 8 4 1 13 -5 6 -12 21 -14 32 -3 15 -5 13 -9 -10z"/>
<path d="M641 1915 c-1 -21 14 -34 29 -25 13 8 13 10 -2 10 -9 0 -19 6 -21 13
-3 6 -6 8 -6 2z"/>
<path d="M1257 1860 c-5 -21 7 -35 22 -26 10 7 3 46 -9 46 -4 0 -10 -9 -13
-20z"/>
<path d="M1330 1840 c0 -5 7 -10 15 -10 8 0 15 5 15 10 0 6 -7 10 -15 10 -8 0
-15 -4 -15 -10z"/>
<path d="M1370 1821 c0 -5 7 -11 15 -15 9 -3 15 0 15 9 0 8 -7 15 -15 15 -8 0
-15 -4 -15 -9z"/>
<path d="M2827 1786 c-8 -48 4 -227 14 -220 12 7 12 254 0 254 -4 0 -11 -15
-14 -34z"/>
<path d="M3330 1554 c0 -8 5 -12 10 -9 6 3 10 10 10 16 0 5 -4 9 -10 9 -5 0
-10 -7 -10 -16z"/>
<path d="M742 1470 c-7 -11 -18 -17 -27 -14 -8 4 -15 1 -15 -4 0 -6 -6 -17
-14 -25 -13 -12 -12 -22 3 -73 17 -54 19 -57 25 -32 5 14 3 35 -3 46 -18 33
-14 55 9 49 13 -3 21 1 25 14 4 13 16 19 36 19 31 0 36 9 17 28 -18 18 -42 15
-56 -8z"/>
<path d="M3285 1410 c-3 -5 -1 -10 4 -10 6 0 11 5 11 10 0 6 -2 10 -4 10 -3 0
-8 -4 -11 -10z"/>
<path d="M2835 1355 c-3 -14 -7 -36 -10 -50 -4 -18 -1 -25 10 -25 12 0 15 11
14 50 -2 56 -6 62 -14 25z"/>
<path d="M906 1341 c-3 -5 6 -20 21 -35 20 -20 29 -24 39 -15 19 15 18 29 -3
45 -21 15 -49 18 -57 5z"/>
<path d="M850 1305 c0 -8 -7 -15 -15 -15 -20 0 -20 -46 0 -54 17 -6 51 56 40
73 -9 16 -25 13 -25 -4z"/>
<path d="M1023 1293 c-18 -7 -16 -30 2 -37 11 -4 15 1 15 19 0 14 -1 25 -2 24
-2 0 -9 -3 -15 -6z"/>
<path d="M3177 1249 c8 -16 16 -29 18 -29 2 0 10 12 17 28 14 26 13 27 -18 29
l-32 1 15 -29z"/>
<path d="M3126 1253 c-20 -21 8 -93 37 -93 11 0 8 38 -3 45 -5 3 -10 15 -10
25 0 20 -13 33 -24 23z"/>
<path d="M1050 1226 c0 -8 -7 -16 -15 -20 -8 -3 -15 -12 -15 -20 0 -8 -7 -19
-16 -24 -10 -6 -14 -14 -9 -22 5 -9 14 -4 31 16 13 16 23 35 24 42 0 6 5 12
10 12 6 0 10 7 10 15 0 8 -4 15 -10 15 -5 0 -10 -6 -10 -14z"/>
<path d="M813 1144 c-10 -21 -9 -24 7 -24 10 0 21 7 24 16 8 21 8 21 -7 27 -7
2 -18 -6 -24 -19z"/>
<path d="M847 1114 c-4 -4 -7 -14 -7 -23 0 -11 3 -12 11 -4 6 6 10 16 7 23 -2
6 -7 8 -11 4z"/>
<path d="M868 1086 c-2 -20 -1 -36 3 -36 10 0 17 47 9 60 -4 7 -9 -3 -12 -24z"/>
<path d="M1190 1060 c0 -5 5 -10 11 -10 5 0 7 5 4 10 -3 6 -8 10 -11 10 -2 0
-4 -4 -4 -10z"/>
<path d="M2720 1040 c0 -5 5 -10 10 -10 6 0 10 5 10 10 0 6 -4 10 -10 10 -5 0
-10 -4 -10 -10z"/>
<path d="M1256 994 c-5 -14 -4 -15 9 -4 17 14 19 20 6 20 -5 0 -12 -7 -15 -16z"/>
<path d="M2900 967 c-19 -9 -26 -22 -28 -51 -4 -51 11 -66 28 -26 15 37 62 72
84 64 9 -3 16 -2 16 4 0 5 -14 12 -31 16 -41 8 -40 8 -69 -7z"/>
<path d="M2624 896 c-8 -22 3 -33 18 -18 9 9 9 15 0 24 -9 9 -13 7 -18 -6z"/>
<path d="M2675 869 c-7 -10 21 -38 38 -39 4 0 16 -9 27 -20 19 -19 60 -28 60
-14 0 12 -34 33 -52 34 -10 0 -18 5 -18 11 0 13 -25 39 -39 39 -5 0 -13 -5
-16 -11z"/>
<path d="M2780 851 c0 -14 49 -43 61 -36 5 4 -1 15 -15 26 -26 20 -46 25 -46
10z"/>
<path d="M2735 780 c-3 -5 1 -10 10 -10 9 0 13 5 10 10 -3 6 -8 10 -10 10 -2
0 -7 -4 -10 -10z"/>
<path d="M1390 705 c-7 -8 -21 -15 -32 -15 -10 0 -16 -4 -13 -10 15 -24 85 3
85 33 0 13 -27 7 -40 -8z"/>
<path d="M2562 703 c2 -10 14 -20 28 -22 25 -3 25 -3 6 18 -23 26 -39 27 -34
4z"/>
<path d="M1318 703 c7 -3 16 -2 19 1 4 3 -2 6 -13 5 -11 0 -14 -3 -6 -6z"/>
<path d="M1800 1536 c0 -3 26 -23 58 -45 141 -97 192 -186 200 -348 2 -57 8
-103 12 -103 8 0 23 91 24 155 4 124 -76 266 -177 313 -42 19 -117 37 -117 28z"/>
</g>
</svg>
